<svg version="1.1" id="Layer_1" xmlns="http://www.w3.org/2000/svg" xmlns:xlink="http://www.w3.org/1999/xlink" x="0px" y="0px"
	 width="100%" viewBox="0 0 1024 576" enable-background="new 0 0 1024 576" xml:space="preserve">
<path fill="#000000" opacity="1.000000" stroke="none" 
	d="
M410.094116,179.122696 
	C415.204620,171.937485 422.819580,167.997849 428.576904,161.972351 
	C438.881500,151.187775 451.792053,143.691589 464.112640,135.550659 
	C469.910950,131.719376 476.637634,129.257874 483.639557,128.440567 
	C501.411499,126.366104 519.141724,126.390732 534.982849,136.049423 
	C545.940125,142.730270 554.828064,152.112396 562.960449,162.044052 
	C568.226929,168.475708 572.601990,175.550842 576.907166,182.653046 
	C580.139404,187.985168 579.661682,189.807129 573.829529,192.514786 
	C572.199097,193.271744 573.685730,195.373627 571.215698,195.622681 
	C565.889038,191.567047 558.896118,189.607285 553.194153,184.300064 
	C543.576965,175.348663 534.379700,165.585114 522.865356,158.926941 
	C518.218750,156.240021 512.813416,154.537811 507.245483,154.340576 
	C502.752136,154.181381 498.239960,154.496231 493.750946,154.285416 
	C487.427399,153.988449 481.981781,156.521271 477.064026,159.832596 
	C466.455414,166.975876 455.648041,173.838577 446.307526,182.777191 
	C431.927094,196.538864 416.592957,209.427002 408.819427,228.581345 
	C407.992462,230.619049 407.494293,232.639328 407.261139,234.815582 
	C405.243622,253.646408 405.280579,272.021179 412.502838,290.245056 
	C417.579163,303.054230 422.778595,315.741272 428.530548,328.259552 
	C431.832245,335.445251 436.110748,341.913361 440.531616,348.300079 
	C448.981537,360.507477 461.051483,365.509552 475.734924,364.968262 
	C482.890228,364.704468 490.063171,364.945618 497.227753,364.900452 
	C509.570435,364.822601 521.743713,363.485107 533.847473,360.884369 
	C542.738037,358.973969 551.885193,358.542389 560.486694,354.955444 
	C565.462036,352.880646 569.955933,350.141266 574.546265,347.471466 
	C578.223145,345.332886 581.074585,345.401489 582.608704,350.103027 
	C583.746338,353.589722 586.918762,355.534088 589.298462,358.038635 
	C593.423706,362.380341 593.540527,365.089813 589.324585,369.495819 
	C581.112122,378.078491 570.210938,381.929810 559.252991,384.216858 
	C538.681519,388.510284 518.035217,393.099213 496.756042,392.416931 
	C484.777740,392.032867 472.640961,393.803955 460.838226,391.674103 
	C439.432159,387.811218 423.935425,375.261871 412.797607,356.769684 
	C405.334381,344.378448 399.509705,331.252960 393.430908,318.176422 
	C388.060638,306.624084 385.443512,294.279816 381.108978,282.453796 
	C376.752045,270.566681 378.667236,257.786560 378.862640,245.350891 
	C378.917145,241.885254 379.883820,238.414001 379.761566,234.969131 
	C379.349518,223.355865 384.569122,213.442276 390.229126,204.215897 
	C394.813141,196.743530 399.569977,188.934265 406.787781,183.298416 
	C408.056854,182.307495 408.857819,180.717026 410.094116,179.122696 
z"/>
</svg>