<svg version="1.1" id="Layer_1" xmlns="http://www.w3.org/2000/svg" xmlns:xlink="http://www.w3.org/1999/xlink" x="0px" y="0px"
	 width="100%" viewBox="0 0 1024 576" enable-background="new 0 0 1024 576" xml:space="preserve">
<path fill="#000000" opacity="1.000000" stroke="none" 
	d="
M425.617096,226.651154 
	C425.553070,212.183853 425.887115,198.198318 427.560303,184.293930 
	C428.757141,174.348190 428.923828,174.368256 438.773010,175.426437 
	C438.177155,172.321686 438.970551,169.976593 442.546082,169.648865 
	C442.858795,169.620209 443.336456,169.475739 443.430542,169.254517 
	C446.678925,161.616959 454.552185,163.140320 460.384247,160.575333 
	C480.835449,151.580826 502.746643,152.362488 524.303711,150.744232 
	C525.620483,150.645386 526.978821,150.770737 528.289307,150.974884 
	C534.053772,151.872925 536.765930,152.794907 535.315063,159.550766 
	C534.560852,163.062973 534.888916,166.866180 535.114746,170.514023 
	C535.346252,174.254501 533.767761,176.180267 530.190796,176.638397 
	C528.051758,176.912354 525.894775,177.308884 523.754089,177.262848 
	C512.924194,177.029984 502.169891,178.487106 491.398804,178.773315 
	C475.605377,179.193008 460.216187,182.890839 444.487122,183.468002 
	C443.436859,183.506546 442.061249,183.369308 441.402588,185.167099 
	C443.040100,186.962906 444.924713,188.507889 445.713562,191.490097 
	C450.146179,208.247528 450.151611,225.324753 450.310059,242.416870 
	C450.413544,253.581879 449.382111,254.849304 460.861786,249.586533 
	C478.882843,241.324921 498.350983,240.111923 517.362610,236.443375 
	C537.642761,232.530014 558.283386,231.799072 578.612793,228.505630 
	C579.916382,228.294449 581.269104,228.225571 582.588074,228.295807 
	C590.369080,228.710052 590.788208,229.224274 591.067200,237.042252 
	C591.185608,240.360428 590.934692,243.764832 592.073853,246.951904 
	C593.703186,251.510117 591.511230,253.645126 587.412964,254.306931 
	C578.578613,255.733536 569.750671,257.518829 560.848938,258.143372 
	C541.259033,259.517822 521.823914,262.107056 502.377411,264.647034 
	C487.050293,266.649017 471.764221,268.966614 456.432678,270.931793 
	C452.765839,271.401825 451.229065,272.730438 451.252197,276.589661 
	C451.386200,298.920166 451.305267,321.251923 451.370026,343.583008 
	C451.375732,345.553070 451.937500,347.517609 452.187134,349.491516 
	C453.488342,359.780151 453.477051,359.752075 463.989441,357.834534 
	C474.321411,355.949921 484.849335,355.782654 495.225769,354.494934 
	C514.920166,352.050964 534.654053,351.904572 554.426819,351.485596 
	C561.552795,351.334625 568.600769,350.732788 575.743652,351.603149 
	C581.994995,352.364838 582.825806,352.955658 582.650146,359.066803 
	C582.521179,363.553894 582.069214,368.106995 582.643555,372.515747 
	C583.128601,376.238739 581.292419,377.287872 578.547852,378.083252 
	C577.765198,378.310089 576.894287,378.318481 576.067627,378.294861 
	C561.586121,377.881470 547.171753,379.868622 532.676453,379.373505 
	C519.026672,378.907196 505.580688,381.833191 492.020935,382.440887 
	C476.748749,383.125336 461.852570,387.594604 446.422821,386.380280 
	C440.364807,385.903503 431.569366,379.989227 429.576111,374.219727 
	C425.749115,363.142487 423.777222,351.629333 423.790771,340.010864 
	C423.830933,305.529266 424.379791,271.048035 424.792419,236.567398 
	C424.830139,233.416519 425.317047,230.271042 425.617096,226.651154 
z"/>
</svg>