<svg version="1.1" id="Layer_1" xmlns="http://www.w3.org/2000/svg" xmlns:xlink="http://www.w3.org/1999/xlink" x="0px" y="0px"
	 width="100%" viewBox="0 0 1024 576" enable-background="new 0 0 1024 576" xml:space="preserve">
<path fill="#000000" opacity="1.000000" stroke="none" 
	d="
M459.917908,280.482178 
	C459.531647,292.742706 463.586273,303.828888 465.552612,315.254333 
	C467.572906,326.993408 469.336090,338.778168 471.478729,350.494080 
	C472.342072,355.214935 473.958008,359.794983 475.150726,364.459747 
	C476.068695,368.049866 478.300079,369.159790 481.861450,368.663086 
	C508.915894,364.889954 536.107666,363.345673 563.414001,363.961578 
	C567.893738,364.062622 572.388794,364.426910 576.829346,365.022827 
	C580.465149,365.510803 582.858215,367.000183 582.129150,371.671265 
	C581.496643,375.723541 582.050659,379.963989 582.111694,384.120819 
	C582.196045,389.860504 581.090820,390.928131 575.224121,391.433868 
	C561.064148,392.654541 546.877747,390.483887 532.768311,391.546539 
	C517.742004,392.678223 502.562317,392.764221 487.735229,395.592987 
	C467.717712,399.411987 452.227081,388.878998 447.572235,368.694427 
	C445.111115,358.022461 443.726105,347.189575 441.683350,336.489502 
	C439.366577,324.354095 435.850311,312.206940 434.655365,300.070953 
	C433.094452,284.218201 429.495972,268.733612 428.036682,252.860367 
	C426.566711,236.871277 425.588806,220.697586 422.219025,204.906219 
	C421.186096,200.065735 422.326324,195.350616 422.107330,190.553314 
	C421.433533,175.794220 419.503326,160.997101 421.807373,146.198990 
	C422.118011,144.203857 422.335846,142.196045 423.435211,140.491669 
	C424.038788,139.555939 424.901093,138.598160 425.876862,138.129990 
	C428.054474,137.085220 435.856873,141.176025 436.073608,143.516632 
	C436.292847,145.884247 437.584534,147.338287 438.786682,149.231949 
	C440.883942,152.535629 440.931580,157.079651 442.173737,160.997482 
	C447.850739,178.903244 446.094757,197.908844 450.605713,216.071655 
	C453.222931,226.609497 453.457520,237.772995 454.383820,248.687241 
	C455.286011,259.317047 458.006592,269.592926 459.917908,280.482178 
z"/>
</svg>