<svg version="1.1" id="Layer_1" xmlns="http://www.w3.org/2000/svg" xmlns:xlink="http://www.w3.org/1999/xlink" x="0px" y="0px"
	 width="100%" viewBox="0 0 1024 576" enable-background="new 0 0 1024 576" xml:space="preserve">
<path fill="#000000" opacity="1.000000" stroke="none" 
	d="
M473.788940,252.381363 
	C481.755646,268.129211 489.533691,283.555084 497.404175,298.933594 
	C498.208649,300.505463 499.206177,302.108215 501.618561,303.494141 
	C504.663025,297.406189 508.133850,291.566956 510.479767,285.306213 
	C511.638763,282.213104 512.830811,279.138885 514.194885,276.133148 
	C526.886719,248.166000 540.010254,220.375427 554.819397,193.489670 
	C561.416870,181.512100 568.656433,169.519165 578.391113,159.612717 
	C589.605042,148.201019 604.509033,153.100433 610.301025,165.901260 
	C615.294373,176.937042 617.529785,188.582840 617.426636,200.759125 
	C617.362061,208.383286 618.138794,216.011093 618.474609,223.638824 
	C619.196045,240.023239 616.087952,256.092499 615.388550,272.312286 
	C614.543396,291.909576 610.961670,311.246246 611.111023,330.946625 
	C611.226379,346.179993 609.077087,361.348419 605.193054,376.185303 
	C604.175049,380.074097 602.865356,383.824402 600.893799,387.309998 
	C599.382141,389.982513 597.764343,391.032440 594.548584,388.801117 
	C590.479248,385.977539 585.888184,383.853638 580.546692,384.588196 
	C577.182556,385.050781 576.524292,382.676392 576.773804,380.148773 
	C577.524109,372.546448 578.796021,365.001007 580.886414,357.661316 
	C581.803406,354.441437 582.687256,351.346649 582.747559,347.954559 
	C583.166748,324.380341 585.943420,300.964691 587.501648,277.471924 
	C588.731262,258.933289 591.659058,240.517654 590.997192,221.785767 
	C590.660034,212.244095 588.819275,202.847168 589.196838,193.075745 
	C584.756958,197.331665 581.282654,202.102631 578.548584,207.276520 
	C573.199585,217.398773 568.513428,227.875443 563.049377,237.931778 
	C554.080261,254.438873 546.997314,271.833038 538.806641,288.703796 
	C534.686340,297.190613 531.503357,306.171722 527.006836,314.526306 
	C523.857178,320.378265 520.616760,326.181274 517.431152,332.013947 
	C516.466309,333.780457 514.851135,334.477020 513.014282,334.961060 
	C507.068695,336.527893 501.092651,338.005585 495.223450,339.824615 
	C492.391144,340.702423 490.661530,339.968384 488.718628,337.872314 
	C484.075836,332.863495 482.134857,326.353729 478.702454,320.680573 
	C470.947815,307.863586 464.896423,294.164337 458.322327,280.724884 
	C451.758789,267.307068 443.300903,254.787842 437.137451,241.210129 
	C430.622955,226.859131 421.160736,214.395493 413.673950,200.712616 
	C412.999847,199.480682 412.403564,197.998795 410.822571,197.341873 
	C409.068359,199.072800 409.388214,201.272278 409.297272,203.384445 
	C408.784149,215.298874 407.988678,227.189148 407.104553,239.083069 
	C405.491394,260.783325 401.404846,282.176422 400.232056,303.900604 
	C399.605774,315.502411 396.315765,326.811249 395.893921,338.477661 
	C395.450684,350.735535 391.650482,362.646484 392.266754,375.057556 
	C392.596313,381.694641 391.596863,382.117706 384.937927,382.190918 
	C380.312683,382.241760 375.734924,381.201263 371.032196,382.284546 
	C367.143219,383.180359 366.507050,379.723877 365.902466,376.970459 
	C364.643799,371.238068 364.797577,365.536804 365.624390,359.672638 
	C367.936829,343.271912 369.886841,326.817108 371.764221,310.359039 
	C373.193268,297.831451 374.782501,285.324280 375.817322,272.744324 
	C376.549774,263.840424 378.847992,255.063171 379.542877,246.158798 
	C380.796570,230.093735 382.297913,213.984436 384.446655,198.100754 
	C386.013458,186.518875 386.640625,175.099945 386.700378,163.552277 
	C386.723419,159.103638 386.054993,154.611267 385.283844,150.212036 
	C384.720032,146.995575 385.608063,144.655121 388.074280,142.776199 
	C390.673004,140.796295 391.647156,143.634659 393.431854,144.451462 
	C400.818787,147.832275 404.593323,153.805130 406.630463,161.274796 
	C408.146667,166.834351 410.951385,172.022736 410.444489,178.146179 
	C410.202606,181.068298 412.291046,182.272949 415.067139,180.574844 
	C415.996002,180.006668 417.157410,179.305237 417.713074,180.160004 
	C421.620087,186.170227 429.123505,187.459167 433.706604,193.040375 
	C437.843231,198.077866 442.112762,203.062973 446.342072,208.055557 
	C453.696411,216.737137 458.164795,226.906982 463.664673,236.554657 
	C466.714569,241.904633 471.177399,246.325287 473.788940,252.381363 
z"/>
</svg>