<?xml version="1.0" standalone="no"?>
<!DOCTYPE svg PUBLIC "-//W3C//DTD SVG 20010904//EN"
 "http://www.w3.org/TR/2001/REC-SVG-20010904/DTD/svg10.dtd">
<svg version="1.0" xmlns="http://www.w3.org/2000/svg"
 width="8880.000000pt" height="808.000000pt" viewBox="0 0 8880.000000 808.000000"
 preserveAspectRatio="xMidYMid meet">

<g transform="translate(0.000000,808.000000) scale(0.100000,-0.100000)"
fill="#000000" stroke="none">
<path d="M12823 6490 c-50 -11 -214 -60 -365 -109 -422 -138 -1110 -314 -1600 -410 -350 -69 -993 -164 -1720 -256 -303 -38 -374 -44 -407 -35 -46 12 -81 54
-81 97 l0 28 203 47 c364 86 534 175 606 320 50 99 38 167 -40 229 l-43 34
-136 -1 c-88 -1 -173 -9 -245 -22 -60 -11 -197 -36 -303 -56 -105 -20 -258
-41 -340 -46 -81 -6 -235 -17 -343 -25 -163 -13 -285 -13 -740 -5 -299 6 -605
15 -679 20 -74 6 -254 20 -400 31 -167 13 -319 19 -410 17 -133 -4 -149 -6
-195 -30 -62 -32 -105 -77 -138 -143 -52 -105 -44 -177 30 -246 40 -39 82 -62
233 -133 178 -83 202 -112 225 -266 24 -163 26 -290 7 -620 -17 -290 -18 -346
-6 -520 45 -652 128 -1292 229 -1767 143 -666 297 -1170 384 -1260 38 -39 103
-28 246 44 217 108 628 410 1104 811 167 142 820 709 1150 1000 145 129 267
230 271 225 4 -4 89 -273 189 -598 261 -853 336 -1068 447 -1287 31 -60 74
-128 95 -150 39 -41 39 -41 100 -35 176 16 541 266 1089 746 631 554 1788
1691 2315 2276 202 224 322 375 545 687 448 625 463 641 803 837 276 159 327
206 352 328 19 90 6 154 -39 188 -40 30 -118 48 -174 40 -48 -7 -270 -68 -613
-169 -211 -61 -248 -69 -570 -116 -543 -79 -733 -135 -854 -254 -105 -102
-102 -241 7 -298 45 -23 70 -25 346 -19 192 4 225 -28 186 -188 -34 -144 -190
-402 -449 -746 -375 -498 -638 -775 -735 -775 -15 0 -38 9 -52 19 -91 72 -185
586 -220 1198 -13 239 -2 440 29 533 16 46 24 57 68 81 28 15 163 62 300 103
290 88 400 137 493 222 131 118 193 342 116 415 -22 20 -37 24 -102 26 -47 2
-112 -5 -169 -17z m-3583 -1376 c52 -18 55 -21 51 -49 -2 -16 -4 -228 -5 -470
-1 -411 -2 -442 -20 -475 -27 -50 -226 -244 -277 -270 l-43 -22 -23 26 c-56
66 -118 340 -192 861 -28 193 -53 364 -57 382 -6 29 -4 32 22 36 16 3 133 4
259 3 197 -2 238 -5 285 -22z"/>
<path d="M45889 6461 c-67 -26 -111 -65 -178 -156 -98 -132 -152 -175 -221
-175 -25 0 -113 18 -195 40 -540 146 -743 180 -1090 180 -1308 0 -2555 -653
-3167 -1660 -192 -316 -334 -679 -438 -1120 -284 -1207 94 -1905 1140 -2104
238 -46 429 -59 760 -53 267 5 312 9 475 36 664 112 1202 412 1645 915 182
208 295 369 374 537 63 133 88 214 90 285 2 94 -24 127 -111 143 -121 23 -233
-62 -517 -393 -264 -308 -389 -440 -504 -533 -192 -154 -331 -219 -490 -230
l-92 -6 -38 40 c-55 57 -67 110 -66 278 1 348 145 948 439 1830 121 364 177
505 284 710 186 359 357 592 483 660 44 24 58 27 121 23 268 -14 420 -289 404
-732 -7 -197 -37 -322 -111 -457 -51 -96 -66 -166 -44 -209 32 -60 152 -79
235 -38 24 12 77 56 117 98 166 174 372 516 665 1110 213 430 293 651 295 815
1 93 -13 128 -63 162 -43 29 -134 31 -202 4z"/>
<path d="M53545 6354 c-425 -37 -808 -111 -1160 -223 -1122 -360 -1899 -1044
-2273 -2001 -241 -614 -285 -1173 -128 -1604 175 -480 589 -841 1156 -1011
302 -90 584 -125 1015 -125 1185 0 2168 252 2944 752 592 382 1032 921 1284
1573 342 883 268 1562 -219 2027 -365 349 -899 548 -1649 613 -210 18 -756 18
-970 -1z m496 -597 c46 -31 84 -91 100 -157 24 -95 17 -358 -15 -534 -86 -490
-349 -1339 -611 -1971 -80 -193 -231 -503 -313 -640 -188 -315 -380 -491 -551
-503 -57 -4 -70 -1 -94 18 -86 68 -105 257 -61 594 60 465 235 1155 416 1641
141 382 393 889 581 1170 137 205 266 343 362 386 58 27 143 25 186 -4z"/>
<path d="M30900 6340 c-128 -23 -240 -79 -292 -147 -38 -49 -65 -169 -50 -221
20 -66 42 -79 187 -102 102 -17 190 -22 405 -26 151 -3 290 -7 308 -10 43 -7
117 -74 132 -120 7 -19 9 -47 5 -62 -12 -50 -126 -365 -347 -957 -346 -925
-404 -1100 -713 -2159 -79 -274 -102 -326 -160 -370 -131 -100 -312 -138 -825
-171 -155 -10 -280 -34 -333 -62 -101 -55 -190 -185 -191 -278 -1 -78 35 -116
150 -156 72 -24 292 -26 694 -4 575 31 1051 37 3010 36 1963 -1 1965 -1 2028
20 89 30 147 64 186 112 19 23 78 123 131 222 130 240 617 1220 655 1317 60
156 47 254 -42 299 -64 33 -181 38 -235 10 -67 -34 -159 -127 -279 -282 -173
-223 -200 -244 -570 -460 -426 -249 -521 -303 -704 -394 -353 -177 -591 -245
-856 -245 -128 0 -144 5 -144 48 0 13 89 243 199 510 250 614 339 840 439
1122 178 501 410 1235 531 1679 28 101 57 194 65 206 26 39 83 58 226 72 74 7
223 24 330 38 107 14 256 30 330 36 74 5 169 18 210 30 194 53 311 173 314
321 1 49 -3 60 -27 86 -50 52 -84 56 -456 48 -945 -19 -1335 -28 -1741 -40
-468 -15 -693 -12 -1255 19 -822 44 -1204 54 -1315 35z"/>
<path d="M70735 6335 c-480 -34 -582 -37 -1135 -34 l-565 4 -65 -23 c-148 -54
-304 -147 -465 -276 -123 -98 -1510 -1351 -1791 -1617 -386 -366 -598 -549
-635 -549 -4 0 -13 17 -20 38 -35 110 -254 637 -399 962 -386 866 -678 1309
-950 1443 l-65 32 -800 6 c-440 4 -944 10 -1121 14 -279 7 -336 6 -443 -9
-204 -29 -324 -102 -391 -236 -55 -109 -39 -173 57 -241 68 -47 121 -57 353
-64 253 -8 328 -19 379 -57 136 -99 151 -371 46 -788 -133 -529 -610 -1753
-939 -2410 -135 -269 -214 -395 -279 -444 -32 -24 -299 -93 -512 -132 -303
-55 -458 -132 -522 -258 -51 -99 -32 -176 53 -220 36 -19 55 -21 254 -20 179
1 269 7 540 39 419 48 660 54 1199 30 213 -10 471 -15 576 -13 172 4 196 7
257 30 91 34 141 76 177 150 51 102 36 185 -45 239 -23 16 -104 45 -196 72
-192 55 -285 105 -384 208 -222 229 -275 591 -149 1029 35 122 61 170 93 170
56 0 215 -243 614 -938 270 -471 381 -650 497 -807 81 -109 168 -200 202 -210
57 -18 154 37 374 213 241 194 447 375 1140 1007 620 565 855 776 918 824 16
13 16 11 3 -20 -8 -19 -51 -221 -96 -449 -90 -458 -152 -738 -181 -816 -24
-64 -66 -104 -154 -147 -81 -40 -129 -49 -425 -77 -490 -48 -581 -71 -685
-175 -69 -69 -112 -160 -100 -213 8 -38 49 -76 104 -98 49 -19 149 -18 1296
11 314 8 847 18 1185 21 536 6 687 4 1172 -16 662 -26 1007 -24 1103 6 123 39
192 107 217 214 21 89 -13 158 -89 180 -21 6 -182 33 -358 61 -176 27 -349 59
-385 71 -129 41 -190 94 -190 162 0 68 95 335 295 830 175 435 192 491 581
1886 95 344 184 647 196 675 51 111 143 171 306 199 48 8 213 20 367 26 169 7
310 17 355 26 142 30 232 100 299 232 41 81 41 125 0 175 -61 74 -90 82 -299
84 -102 0 -270 -5 -375 -12z"/>
<path d="M24480 6319 c-113 -4 -313 -13 -445 -19 -366 -18 -2479 -25 -3095
-11 -498 12 -521 12 -708 -8 -290 -31 -469 -38 -512 -18 -78 35 -167 23 -223
-31 -41 -39 -87 -134 -87 -181 0 -50 37 -92 112 -126 82 -37 155 -53 398 -85
235 -31 374 -54 416 -70 79 -30 152 -131 155 -212 3 -82 17 -42 -287 -849
-296 -790 -345 -941 -619 -1932 -52 -192 -107 -385 -121 -430 -73 -231 -211
-347 -448 -377 -39 -5 -186 -14 -326 -20 -140 -6 -286 -15 -326 -20 -153 -20
-260 -84 -313 -191 -56 -112 -31 -217 64 -266 34 -18 180 -16 780 12 670 31
919 36 1905 42 792 4 1143 1 1597 -11 742 -20 1175 -21 1303 -1 153 23 257 65
325 132 44 43 450 765 555 988 155 328 249 571 257 667 13 155 -72 233 -216
198 -82 -19 -133 -61 -202 -163 -103 -155 -129 -184 -238 -270 -450 -357
-1244 -786 -1711 -926 -158 -47 -234 -62 -356 -68 l-110 -6 -27 32 c-15 18
-27 39 -27 47 0 8 31 84 70 169 327 723 575 1303 661 1549 8 21 27 49 43 63
27 23 35 24 100 18 247 -22 442 -238 471 -520 7 -70 -9 -150 -59 -289 -55
-150 -51 -212 15 -241 61 -28 152 -17 220 27 91 58 140 124 292 393 118 209
245 470 286 587 88 254 76 414 -37 476 -67 38 -260 80 -414 91 -122 9 -158 8
-345 -14 -242 -29 -294 -30 -332 -10 -46 23 -47 69 -6 185 9 25 59 185 111
355 188 611 202 651 240 685 34 29 37 30 142 30 186 -1 438 -47 600 -111 330
-130 492 -303 534 -573 10 -65 9 -82 -10 -159 -36 -142 -26 -199 45 -247 88
-60 251 -15 351 95 63 69 124 174 262 450 118 234 186 403 258 645 53 174 66
246 60 323 -8 101 -50 166 -125 193 -43 15 -540 17 -903 3z"/>
<path d="M80740 6319 c-113 -4 -313 -13 -445 -19 -366 -18 -2479 -25 -3095
-11 -498 12 -521 12 -708 -8 -290 -31 -469 -38 -512 -18 -78 35 -167 23 -223
-31 -41 -39 -87 -134 -87 -181 0 -50 37 -92 112 -126 82 -37 155 -53 398 -85
235 -31 374 -54 416 -70 79 -30 152 -131 155 -212 3 -82 17 -42 -287 -849
-296 -790 -345 -941 -619 -1932 -52 -192 -107 -385 -121 -430 -73 -231 -211
-347 -448 -377 -39 -5 -186 -14 -326 -20 -140 -6 -286 -15 -326 -20 -153 -20
-260 -84 -313 -191 -56 -112 -31 -217 64 -266 34 -18 180 -16 780 12 670 31
919 36 1905 42 792 4 1143 1 1597 -11 742 -20 1175 -21 1303 -1 153 23 257 65
325 132 44 43 450 765 555 988 155 328 249 571 257 667 13 155 -72 233 -216
198 -82 -19 -133 -61 -202 -163 -103 -155 -129 -184 -238 -270 -450 -357
-1244 -786 -1711 -926 -158 -47 -234 -62 -356 -68 l-110 -6 -27 32 c-15 18
-27 39 -27 47 0 8 31 84 70 169 327 723 575 1303 661 1549 8 21 27 49 43 63
27 23 35 24 100 18 247 -22 442 -238 471 -520 7 -70 -9 -150 -59 -289 -55
-150 -51 -212 15 -241 61 -28 152 -17 220 27 91 58 140 124 292 393 118 209
245 470 286 587 88 254 76 414 -37 476 -67 38 -260 80 -414 91 -122 9 -158 8
-345 -14 -242 -29 -294 -30 -332 -10 -46 23 -47 69 -6 185 9 25 59 185 111
355 188 611 202 651 240 685 34 29 37 30 142 30 186 -1 438 -47 600 -111 330
-130 492 -303 534 -573 10 -65 9 -82 -10 -159 -36 -142 -26 -199 45 -247 88
-60 251 -15 351 95 63 69 124 174 262 450 118 234 186 403 258 645 53 174 66
246 60 323 -8 101 -50 166 -125 193 -43 15 -540 17 -903 3z"/>
</g>
</svg>
