<svg xmlns="http://www.w3.org/2000/svg" viewBox="0 0 2842 225">
	<title>@WebDesignerMag</title>
	<g fill-rule="evenodd">
		<path d="M206.906 86.875c1.125 7.125 1.453 14.25.985 21.375-.46 7.125-1.54 14.72-3.23 22.78-1.5 3-4.03 6.423-7.59 10.267-3.56 3.844-7.4 7.547-11.53 11.11-4.12 3.562-8.15 6.61-12.09 9.14-3.93 2.53-6.84 3.89-8.72 4.078-3.37.563-6.65.656-9.84.28-3.19-.374-6.18-1.03-9-1.968-.56.376-1.17.797-1.83 1.266-.65.47-1.26.984-1.83 1.547-1.87.375-4.31.703-7.31.984-3 .282-5.53.985-7.59 2.11-6.56.937-13.26 1.36-20.11 1.265-6.84-.1-13.26-.52-19.26-1.27-1.5-.94-2.91-1.74-4.22-2.39-1.31-.66-3-1.08-5.06-1.27-3.18-1.31-5.95-3.19-8.29-5.63-2.34-2.44-4.31-5.06-5.91-7.88-1.59-2.81-2.86-5.81-3.79-9-.94-3.19-1.5-6.19-1.69-9 .94-4.69 2.81-8.86 5.63-12.52 2.81-3.66 5.72-7.27 8.72-10.83 1.88-2.07 3.75-3.66 5.63-4.78 1.88-1.13 3.38-2.54 4.5-4.22 2.44-.75 4.55-1.78 6.33-3.1 1.78-1.31 3.52-2.58 5.2-3.8 1.69-1.22 3.42-2.44 5.2-3.66 1.78-1.22 3.89-2.3 6.33-3.23 1.5-1.88 3.75-3.42 6.75-4.64 3-1.22 5.16-2.96 6.47-5.21.94.75 1.87.89 2.81.42.94-.47 1.88-.89 2.81-1.27 1.32-.37 2.35-.14 3.1.7s1.31.7 1.69-.42c.75.93 1.36 1.45 1.83 1.54.47.1.98.24 1.55.43.94-.94 1.74-1.78 2.39-2.53.66-.75 1.17-1.6 1.55-2.54l3.38-3.09 5.35-3.66 2.81-.28 4.78 4.5c.37.37.84 1.03 1.4 1.97.57.93.94 2.15 1.13 3.65 0 1.31.05 2.2.14 2.67.09.47.33 1.26.7 2.39v3.37c-.18.93-.28 1.68-.28 2.25v3.09c0 .37-.04.79-.14 1.26-.09.47-.14.98-.14 1.54-2.44 7.31-4.26 13.83-5.48 19.55-1.22 5.72-1.55 9.89-.99 12.51.18 1.31.42 2.81.7 4.5.28 1.68.8 3.23 1.55 4.64.75 1.4 1.69 2.62 2.81 3.65 1.12 1.03 2.62 1.55 4.5 1.55 1.5-.19 3.09-.75 4.78-1.69 1.5-.94 3.19-2.2 5.06-3.8 1.88-1.59 3.85-3.98 5.91-7.17l-1.69-4.5c1.13-1.87 1.88-3.75 2.25-5.62.38-1.88.56-3.8.56-5.77 0-1.97-.04-4.08-.14-6.33-.09-2.25.14-4.69.71-7.31-1.69-4.31-3.75-9.19-6.19-14.63-2.43-5.44-5.15-10.78-8.15-16.03-3-5.25-6.23-9.98-9.7-14.2-3.47-4.22-7.17-7.17-11.11-8.86-.94-.37-1.64-.42-2.11-.14l-1.41.84c-.47.28-.98.47-1.54.56-.56.09-1.41-.14-2.53-.7-11.25 8.44-22.55 16.73-33.89 24.89s-21.7 17.58-31.08 28.27c-9 8.06-17.06 17.67-24.19 28.83-7.12 11.15-12.56 23.86-16.31 38.11.57.37 1.6.93 3.1 1.68 2.25.94 4.4 1.6 6.46 1.97 2.07.38 4.13.94 6.19 1.69l10.12 5.63c.75 1.5 1.13 2.43 1.13 2.81 4.31 1.5 8.34 2.53 12.09 3.09 3.75.57 7.4 1.6 10.97 3.1 9.38.38 17.63.71 24.75.99 7.13.28 14.25.52 21.38.7 6.37 0 12.14-.37 17.29-1.12 5.16-.75 10.17-1.5 15.05-2.25.37-1.31.51-2.21.42-2.67-.1-.47.23-1.18.98-2.11 1.69 1.12 3.42 2.81 5.21 5.06 1.78 2.25 3.52 4.59 5.21 7.03 1.69 2.43 3.38 4.78 5.06 7.03 1.69 2.25 3.38 3.94 5.07 5.06-.75 1.31-1.03 2.43-.84 3.37.19.93 0 2.06-.56 3.37-4.5 3.75-9.7 6.28-15.61 7.59-5.9 1.31-12.23 2.01-18.98 2.11-6.75.09-13.78-.1-21.1-.57-7.31-.47-14.43-.42-21.37.14-3.75-.94-6.75-1.5-9-1.69-2.25-.19-4.97-.56-8.16-1.12-5.82-.19-10.03-.75-12.66-1.69-1.69-.38-3.37-.57-5.06-.57-1.69 0-3.28-.18-4.78-.56-4.69-1.31-8.81-3.18-12.37-5.62-3.94-1.317-7.97-3.19-12.09-5.63s-8.11-5.11-11.95-8.02c-3.85-2.906-7.41-6-10.69-9.28-3.28-3.28-6.05-6.33-8.3-9.14 0-3-.23-5.577-.7-7.73-.47-2.16-.94-4.22-1.41-6.19-.47-1.97-.8-3.98-.98-6.045-.19-2.07.09-4.5.84-7.32-.56-1.69-1.12-3.33-1.69-4.92-.56-1.59-1.12-3.14-1.69-4.64.38-8.06 2.07-15.28 5.07-21.66 3-6.38 6.61-12.24 10.83-17.58 4.2-5.31 8.84-10.23 13.9-14.73 5.07-4.5 9.94-8.906 14.63-13.22.94.94 1.64 1.08 2.11.423s1.64-.8 3.52-.423c0-1.12.47-2.43 1.41-3.932.94-1.5 2.11-2.95 3.518-4.36 1.408-1.406 2.955-2.578 4.64-3.515 1.69-.94 3.284-1.22 4.784-.844 1.87-3.56 4.73-6.56 8.58-9 3.84-2.44 7.73-4.92 11.67-7.45 3.94-2.53 7.5-5.25 10.69-8.15 3.19-2.9 5.16-6.61 5.91-11.11h5.35c-2.25-3.37-3.28-6.75-3.09-10.12.19-3.37 1.36-6.18 3.52-8.43s5.11-3.65 8.86-4.22c3.75-.56 8.06.28 12.94 2.53 1.13.19 2.02.14 2.67-.14.66-.28 1.27-.61 1.83-.98s1.08-.75 1.55-1.12c.47-.37 1.08-.65 1.83-.84 8.63 3.56 16.31 7.92 23.06 13.08s12.75 11.02 18 17.58c-.19.38-.51.71-.98.99s-.89.56-1.26.84c-.37.28-.61.61-.7.99-.09.38.24.84.99 1.41 6.19 7.5 11.81 15.57 16.88 24.19 5.06 8.63 9.75 17.72 14.06 27.28zM101.156 137.5c3.563.375 7.172.422 10.828.14 3.657-.28 7.36-.61 11.11-.984-2.438-4.5-3.375-9.656-2.813-15.47.19-.75.33-1.405.43-1.967.1-.57.14-1.13.14-1.69.19-.75.38-1.55.57-2.39.19-.85.38-1.83.57-2.96-1.69.94-3.33 1.87-4.92 2.81-1.59.93-2.86 2.06-3.79 3.37-3.37 1.5-6 3.28-7.87 5.34s-3.84 4.12-5.91 6.18c.19.94.14 1.64-.14 2.11s-.61.98-.98 1.55c.38.93.8 1.68 1.27 2.25.47.56.99 1.12 1.55 1.68z"/>
		<path d="M248.875 194.03c-.938-2.06-1.875-4.03-2.813-5.905-.937-1.875-1.874-3.562-2.812-5.063-2.25-4.5-4.22-8.53-5.906-12.093-1.688-3.57-3.28-7.69-4.78-12.38.56-3.19 1.545-8.53 2.952-16.03 1.406-7.5 3.046-15.71 4.922-24.61 1.875-8.91 3.89-17.96 6.046-27.14 2.157-9.19 4.36-17.07 6.61-23.63 2.062-5.82 4.36-12 6.89-18.57 2.532-6.57 5.344-12.61 8.438-18.14 3.094-5.53 6.422-10.27 9.984-14.21 3.563-3.94 7.406-6.28 11.53-7.03 1.127 1.5 2.345 2.67 3.658 3.51 1.312.84 2.53 1.45 3.656 1.83 3.188 4.5 6.28 8.29 9.28 11.39 3 3.09 6.564 6.14 10.69 9.14-1.126 5.62-2.767 11.86-4.923 18.7s-4.406 13.73-6.75 20.67c-2.344 6.94-4.64 13.64-6.89 20.11-2.25 6.47-4.032 12.04-5.344 16.73-1.126 3.75-2.25 8.06-3.375 12.93-.938 4.12-1.922 9.09-2.954 14.91-1.03 5.81-2.015 12.18-2.953 19.12 2.63-.75 5.58-2.25 8.86-4.5 3.29-2.25 6.33-4.6 9.14-7.03 3.38-2.82 6.66-5.82 9.85-9 4.32-4.32 7.97-8.25 10.97-11.82 3-3.56 5.77-7.27 8.3-11.11 2.53-3.84 5.16-8.06 7.88-12.66 2.72-4.6 5.96-10.08 9.71-16.45 3.38-5.44 6.89-11.25 10.55-17.44 3.66-6.19 7.36-12.09 11.11-17.72 3.75-5.62 7.41-10.83 10.97-15.61 3.56-4.78 6.85-8.48 9.85-11.11 2.06 2.06 4.45 4.22 7.17 6.47 2.72 2.25 5.67 3.84 8.86 4.78 1.31 2.06 2.58 3.89 3.8 5.49 1.22 1.59 2.39 3.14 3.52 4.64 1.5 2.06 2.86 3.93 4.08 5.62 1.22 1.68 2.3 3.56 3.24 5.62-.19 1.5-.52 3.47-.98 5.91l-1.55 8.01c-.56 2.9-1.17 5.86-1.83 8.86-.66 3-1.27 5.9-1.83 8.72-1.88 8.43-3.28 14.81-4.22 19.12-.94 4.31-1.59 7.68-1.97 10.12-.37 2.43-.61 4.5-.7 6.18-.09 1.68-.14 4.03-.14 7.03 0 2.25.19 4.5.56 6.75.38 2.06.8 4.17 1.27 6.33.47 2.15 1.36 4.17 2.68 6.04l13.5-10.41c3.75-2.81 7.36-6.8 10.83-11.95 3.47-5.16 6.85-11.06 10.13-17.72 3.28-6.66 6.52-13.88 9.7-21.66 3.19-7.78 6.38-15.8 9.57-24.05 2.25-6 4.55-11.96 6.89-17.86 2.35-5.91 4.74-11.53 7.17-16.88 2.44-5.35 4.83-10.22 7.17-14.63 2.35-4.41 4.64-8.11 6.89-11.11 5.07 3.19 9.43 6.37 13.08 9.56 3.66 3.19 6.85 6.7 9.56 10.54 2.72 3.85 4.88 8.25 6.47 13.22 1.6 4.97 2.77 10.83 3.52 17.58-4.13 7.88-7.97 15.94-11.53 24.19-3.56 8.25-7.12 16.59-10.68 25.03-4.5 10.88-9.14 21.7-13.92 32.49-4.78 10.78-10.08 21.04-15.89 30.79-5.81 9.75-12.33 18.7-19.55 26.86-7.22 8.15-15.52 15.04-24.89 20.67-2.63-.56-4.88-.84-6.75-.84-2.06 0-3.8.28-5.2.84-1.4.56-2.67 1.31-3.8 2.25-7.68-3.56-13.87-8.86-18.56-15.89-4.69-7.03-9.28-14.86-13.78-23.49-.56-1.31-1.17-2.58-1.83-3.8-.65-1.22-1.36-2.49-2.11-3.8l-4.78-8.72-2.81-5.35-3.93 3.66-5.91 5.35-3.38 3.38c-5.81 5.44-11.72 10.73-17.72 15.89-6 5.15-12.28 9.84-18.84 14.06-6.56 4.22-13.55 7.64-20.95 10.27-7.4 2.62-15.33 4.03-23.76 4.22-1.5-.76-2.86-1.41-4.08-1.97-1.22-.57-2.39-1.13-3.51-1.69-4.31-2.07-7.87-4.03-10.68-5.91-2.82-1.88-6.1-4.78-9.85-8.72z"/>
		<path d="M683.188 55.656c.187 1.313.234 2.297.14 2.953-.094.65-.187 1.26-.28 1.82-.095.56-.142 1.17-.142 1.83 0 .65.188 1.64.563 2.95-3.94 6.37-8.49 10.73-13.65 13.07s-10.74 4.03-16.74 5.06c-6 1.03-12.14 2.11-18.42 3.23-6.28 1.12-12.52 3.56-18.71 7.31-2.44-.94-4.64-.94-6.61 0-1.97.93-4.83 1.22-8.58.84-1.13 1.12-2.53 1.92-4.22 2.39-1.69.47-3.38.98-5.06 1.54.75 1.69 1.07 3.42.98 5.2-.1 1.78.14 3.23.7 4.36 6.56.56 13.83.47 21.79-.28 7.97-.75 15.8-1.22 23.48-1.41.18.94.09 1.54-.28 1.83-.38.28-.47.79-.28 1.54 1.31.93 2.62 2.11 3.94 3.51 1.31 1.41 2.62 2.77 3.94 4.08 1.31 1.32 2.67 2.39 4.08 3.24 1.4.84 3.04 1.17 4.92.98.75 1.5 1.26 3.14 1.54 4.92.28 1.78.05 3.61-.7 5.48-3 2.06-6 4.17-9 6.33s-6.14 4.08-9.43 5.76c-3.28 1.69-6.75 3.05-10.41 4.08-3.66 1.03-7.74 1.45-12.24 1.26h-2.11c-.47 0-1.08-.28-1.83-.84-1.5.94-3.61 1.22-6.33.84s-4.83-.1-6.33.84c-2.07-.94-4.55-1.36-7.46-1.27-2.91.09-5.49-.23-7.74-.98-3 3.93-5.71 8.15-8.15 12.65-2.44 4.5-4.6 9.28-6.47 14.35 6.37.94 11.67 1.31 15.89 1.12 4.22-.19 8.2-.52 11.95-.99s7.59-.94 11.53-1.41c3.94-.47 8.9-.61 14.91-.42 3.75-2.06 8.2-3.42 13.36-4.08 5.15-.66 9.89-1.74 14.2-3.24 1.5.56 2.81 1.54 3.94 2.95 1.12 1.41 2.2 2.72 3.23 3.94 1.03 1.22 2.11 2.29 3.23 3.23s2.53 1.31 4.22 1.12c.75.75 1.26 1.64 1.54 2.67s.52 2.01.7 2.95c.18.94.51 1.73.98 2.39.47.65 1.26.89 2.39.7-2.81 6.19-6.05 10.92-9.7 14.2-3.66 3.28-7.83 5.77-12.52 7.45-4.69 1.69-9.89 3-15.61 3.94-5.72.94-12.05 2.06-18.99 3.38-1.69.38-3.09.33-4.22-.14-1.13-.47-2.44-.7-3.94-.7-4.31.94-9.47 1.78-15.47 2.53s-12.09 1.03-18.28.84c-6.19-.19-12.09-.99-17.72-2.39-5.63-1.41-10.22-3.89-13.78-7.46-1.5-1.31-2.49-2.86-2.96-4.64-.47-1.78-1.73-3.14-3.8-4.08-.19-2.44-.56-5.16-1.13-8.16-.57-3-1.13-6.14-1.69-9.42-.57-3.28-.99-6.52-1.27-9.7-.28-3.19-.14-6.1.42-8.72.56-2.82 1.73-5.35 3.51-7.6s2.39-4.69 1.83-7.32c.94-.19 1.5-.7 1.69-1.55.18-.84.93-1.17 2.25-.98 1.12-3.37 2.34-6.56 3.65-9.56 1.31-3 2.67-5.91 4.08-8.72 1.4-2.81 2.81-5.67 4.22-8.58 1.4-2.91 2.76-6.14 4.07-9.71-2.62-2.43-4.54-5.11-5.76-8.01-1.22-2.91-2.11-5.81-2.67-8.72-.57-2.9-1.03-5.9-1.41-9-.38-3.09-1.03-6.23-1.97-9.42 1.87-2.81 4.17-5.11 6.89-6.89 2.71-1.78 5.67-3.23 8.86-4.36 3.18-1.13 6.65-2.06 10.4-2.81s7.69-1.598 11.81-2.53c7.5-2.44 14.2-4.318 20.11-5.63 5.9-1.316 11.72-2.39 17.44-3.238 5.72-.85 11.67-1.64 17.86-2.39 6.19-.75 13.22-1.88 21.09-3.38 1.68 1.68 3.28 2.53 4.78 2.53.75-1.69 1.64-2.2 2.67-1.55 1.03.66 1.45.14 1.26-1.55 1.87 3.18 4.26 5.86 7.17 8.01 2.91 2.16 6.14 3.984 9.7 5.484z"/>
		<path d="M843.844 168.156c1.125.563 1.78 1.5 1.968 2.813.188 1.31.188 2.34 0 3.09-3.375 4.31-5.718 7.31-7.03 9-1.313 1.68-2.25 2.95-2.813 3.79-.57.84-1.18 1.54-1.83 2.11-.66.56-2.11 1.78-4.36 3.65-8.44 5.06-17.11 9.56-26.02 13.5-8.91 3.94-18.24 6.65-27.99 8.15-1.5 2.06-4.36 3.51-8.58 4.36-4.22.84-8.11 1.64-11.68 2.39-.75-.38-1.17-.89-1.27-1.55-.1-.66-.52-1.17-1.27-1.55-.19 1.87-1.03 2.86-2.53 2.95-1.5.09-3.33-.28-5.49-1.13-2.16-.85-4.41-1.97-6.75-3.38-2.35-1.41-4.36-2.67-6.05-3.8-.94 1.5-1.92 3-2.96 4.5-1.03 1.5-2.3 2.53-3.8 3.09l-4.64-.85c-1.03-.19-2.02.18-2.96 1.12-1.13-.57-2.02-1.22-2.67-1.97-.66-.75-1.32-1.45-1.97-2.11-.66-.66-1.41-1.27-2.25-1.83-.85-.56-2.02-1.03-3.52-1.41.37-.75.18-1.92-.57-3.51s-1.88-2.58-3.38-2.95c.75-1.32.42-2.96-.99-4.92-1.41-1.97-2.48-4.17-3.23-6.61.37-2.06.65-4.31.84-6.75.19-2.44 1.31-3.85 3.37-4.22-.19-1.31-.47-2.44-.85-3.38l-1.11-2.8c1.31-1.13 2.25-2.49 2.81-4.08.56-1.6 1.03-3.24 1.4-4.92.37-1.69.84-3.38 1.4-5.07.56-1.69 1.59-3.1 3.09-4.22 1.69-5.63 3-9.8 3.94-12.52.94-2.72 1.64-5.39 2.11-8.02s1.03-5.44 1.68-8.44c.66-3 1.83-6.75 3.51-11.25-.19-2.82.1-5.3.85-7.46s1.55-4.32 2.39-6.47c.84-2.16 1.55-4.41 2.11-6.75.56-2.35.47-5.11-.28-8.3-2.63.19-4.5 1.08-5.63 2.67-1.13 1.59-1.88 3.7-2.25 6.33-1.5 1.5-3.33 2.2-5.49 2.11-2.16-.1-4.08.14-5.77.7-6.56-2.63-12-6.38-16.31-11.25-4.32-4.88-7.78-10.59-10.41-17.16 1.68-4.32 4.21-7.93 7.59-10.83 3.37-2.91 7.22-5.35 11.53-7.31 4.31-1.97 8.9-3.57 13.78-4.79l14.06-3.52c7.31-1.31 14.62-2.81 21.94-4.5 7.31-1.69 15.18-2.25 23.62-1.69 1.12-.57 2.48-.89 4.08-.99 1.59-.09 3.23-.14 4.92-.14s3.33-.05 4.92-.14c1.6-.09 2.96-.42 4.08-.99.94 1.12 2.3 1.83 4.08 2.11 1.78.28 3.7 1.17 5.76 2.67 2.25-1.69 4.17-2.07 5.76-1.13 1.59.93 3.05 1.96 4.36 3.09 1.31 1.12 2.58 2.15 3.8 3.09 1.22.94 2.48 1.41 3.79 1.41 1.31 1.68 2.95 3.28 4.92 4.78 1.97 1.5 3.85 3.05 5.63 4.64 1.78 1.59 3.28 3.33 4.5 5.2 1.22 1.88 1.83 4.03 1.83 6.47-.19.94.09 1.5.84 1.69.75.19 1.31.56 1.69 1.12.18 5.81-.71 10.82-2.68 15.04-1.97 4.22-4.41 8.11-7.31 11.67-2.91 3.56-6.1 6.94-9.56 10.13-3.47 3.19-6.61 6.56-9.43 10.13 1.88 2.43 4.03 4.59 6.47 6.47 2.44 1.87 4.92 3.75 7.45 5.62 2.53 1.87 4.92 3.84 7.17 5.9 2.25 2.06 4.13 4.5 5.63 7.31.38.37.85.7 1.41.98.56.28 1.12.61 1.69.98.56 1.87 1.31 3.79 2.25 5.76.93 1.97 1.73 3.84 2.39 5.63.65 1.78 1.074 3.37 1.26 4.78.185 1.4-.19 2.58-1.13 3.51zm-49.5-93.937c-9.563-.38-19.078.46-28.547 2.53-9.47 2.06-17.39 4.97-23.766 8.72 3.19 2.62 6.43 4.96 9.71 7.03 3.28 2.06 5.86 4.87 7.74 8.43 7.31-3 13.78-6.8 19.41-11.39 5.63-4.6 10.78-9.71 15.47-15.33zM798 163.93c.563-1.876 1.594-3.375 3.094-4.5 1.5-1.126 3-2.204 4.5-3.235 1.5-1.03 2.812-2.156 3.937-3.375 1.13-1.22 1.6-2.953 1.41-5.203-6-3.19-11.48-5.11-16.45-5.767-4.97-.657-9.65-.657-14.06 0-4.4.656-8.62 1.64-12.65 2.952-4.03 1.31-8.11 2.25-12.23 2.81-2.06 5.44-4.21 11.345-6.46 17.72-2.25 6.375-4.4 12.56-6.47 18.56 5.63-.75 10.79-1.92 15.47-3.513 4.69-1.6 9.24-3.33 13.64-5.21 4.41-1.88 8.72-3.8 12.94-5.77 4.22-1.97 8.67-3.8 13.36-5.49z"/>
		<path d="M895.094 217.094c-5.438-1.313-9.61-3.516-12.516-6.61-2.906-3.093-5.062-6.75-6.47-10.968-1.405-4.22-2.342-8.86-2.81-13.922-.47-5.063-.985-10.313-1.548-15.75.75-2.438 1.734-4.5 2.953-6.188 1.22-1.687 1.735-4.03 1.547-7.03 2.063-6 3.937-11.813 5.625-17.44 1.688-5.624 2.812-11.436 3.375-17.436 1.125-1.688 2.25-2.812 3.375-3.375 1.5-10.688 1.688-21.656.563-32.906-1.126-11.25-3-21.66-5.625-31.22.187-2.07.468-3.61.843-4.64.375-1.04.375-1.93 0-2.68-.375-1.69.188-2.53 1.688-2.53h4.5c0-3.38-.61-6.71-1.828-9.99-1.22-3.28-2.39-7.08-3.516-11.39 1.5-3.38 2.53-6.66 3.094-9.85.562-3.19 1.593-6.1 3.093-8.72 6 1.87 11.907 4.03 17.72 6.46 5.812 2.44 11.53 4.83 17.155 7.17 5.626 2.34 11.157 4.59 16.594 6.75 5.438 2.16 10.78 3.89 16.032 5.2 8.062 5.81 16.36 11.58 24.89 17.29 8.53 5.72 16.313 12 23.344 18.84 7.03 6.84 12.89 14.67 17.578 23.48 4.688 8.81 7.406 19.22 8.156 31.22-.375 1.12-.656 2.06-.843 2.81l-.563 2.25c-.188.75-.28 1.59-.28 2.53v3.94c-6.75 11.81-15.282 21.75-25.595 29.81-10.313 8.06-21.562 15.18-33.75 21.37-12.188 6.19-24.89 11.86-38.11 17.02-13.218 5.16-26.11 10.64-38.67 16.45zm27.562-159.47c-1.687 0-2.906.376-3.656 1.126 2.25 8.438 3.937 16.406 5.063 23.906 1.125 7.5 1.734 15 1.828 22.5.1 7.5-.32 15.188-1.26 23.063-.94 7.87-2.25 16.4-3.94 25.59 2.44-.19 4.6-.66 6.47-1.41 1.88-.75 3.8-1.6 5.77-2.53 1.97-.94 4.03-1.78 6.19-2.53s4.64-1.22 7.46-1.41c.75-1.5 1.74-2.67 2.96-3.52 1.22-.85 2.3-1.74 3.24-2.67 4.69-1.88 9.38-3.85 14.07-5.91 4.69-2.06 9-4.41 12.94-7.03 3.94-2.63 7.5-5.63 10.69-9 3.19-3.38 5.81-7.41 7.88-12.1-1.5-2.82-3.33-5.21-5.49-7.18-2.15-1.97-4.4-3.94-6.75-5.91-2.34-1.97-4.59-4.03-6.75-6.19-2.15-2.16-3.89-4.64-5.2-7.45-3-.38-5.62-1.18-7.87-2.39-2.25-1.22-4.4-2.44-6.47-3.66-2.06-1.22-4.26-2.39-6.61-3.52-2.34-1.13-5.11-1.78-8.29-1.97-4.87-2.63-9.28-4.46-13.22-5.49-3.93-1.03-6.93-2.49-9-4.36z"/>
		<path d="M1204.25 55.656c.188 1.313.234 2.297.14 2.953-.093.65-.187 1.26-.28 1.82-.094.56-.14 1.17-.14 1.83 0 .65.186 1.64.56 2.95-3.936 6.37-8.483 10.73-13.64 13.07-5.156 2.34-10.734 4.03-16.734 5.06-6 1.03-12.14 2.11-18.422 3.23-6.28 1.12-12.515 3.56-18.703 7.31-2.43-.94-4.64-.94-6.6 0-1.97.93-4.83 1.22-8.58.84-1.12 1.12-2.53 1.92-4.22 2.39-1.68.47-3.37.98-5.06 1.54.75 1.69 1.08 3.42.99 5.2-.09 1.78.14 3.23.71 4.36 6.57.56 13.83.47 21.8-.28 7.97-.75 15.8-1.22 23.49-1.41.19.94.1 1.54-.28 1.83-.37.28-.47.79-.28 1.54 1.31.93 2.63 2.11 3.94 3.51 1.32 1.41 2.63 2.77 3.94 4.08 1.31 1.32 2.67 2.39 4.08 3.24 1.41.84 3.05 1.17 4.93.98.75 1.5 1.27 3.14 1.55 4.92.28 1.78.05 3.61-.7 5.48-3 2.06-6 4.17-9 6.33s-6.14 4.08-9.42 5.76c-3.28 1.69-6.75 3.05-10.41 4.08-3.65 1.03-7.73 1.45-12.23 1.26h-2.11c-.47 0-1.08-.28-1.83-.84-1.5.94-3.61 1.22-6.33.84s-4.83-.1-6.33.84c-2.06-.94-4.54-1.36-7.45-1.27-2.9.09-5.48-.23-7.73-.98-3 3.93-5.72 8.15-8.15 12.65-2.43 4.5-4.59 9.28-6.47 14.35 6.38.94 11.67 1.31 15.89 1.12 4.22-.19 8.21-.52 11.96-.99s7.59-.94 11.53-1.41c3.94-.47 8.91-.61 14.91-.42 3.75-2.06 8.2-3.42 13.36-4.08 5.16-.66 9.89-1.74 14.2-3.24 1.5.56 2.81 1.54 3.94 2.95 1.13 1.41 2.2 2.72 3.23 3.94 1.03 1.22 2.11 2.29 3.23 3.23s2.53 1.31 4.22 1.12c.75.75 1.27 1.64 1.55 2.67s.52 2.01.71 2.95c.19.94.52 1.73.99 2.39.47.65 1.27.89 2.39.7-2.81 6.19-6.05 10.92-9.7 14.2-3.66 3.28-7.83 5.77-12.52 7.45-4.69 1.69-9.89 3-15.61 3.94-5.72.94-12.05 2.06-18.99 3.38-1.69.38-3.09.33-4.22-.14-1.12-.47-2.43-.7-3.93-.7-4.31.94-9.47 1.78-15.47 2.53s-12.09 1.03-18.28.84c-6.19-.19-12.09-.99-17.72-2.39-5.62-1.41-10.22-3.89-13.78-7.46-1.5-1.31-2.48-2.86-2.95-4.64-.47-1.78-1.73-3.14-3.79-4.08-.19-2.44-.56-5.16-1.13-8.16-.56-3-1.12-6.14-1.69-9.42-.56-3.28-.98-6.52-1.26-9.7-.28-3.19-.14-6.1.42-8.72.56-2.82 1.74-5.35 3.52-7.6s2.39-4.69 1.83-7.32c.94-.19 1.5-.7 1.69-1.55.19-.84.94-1.17 2.25-.98 1.13-3.37 2.34-6.56 3.66-9.56 1.32-3 2.67-5.91 4.08-8.72 1.41-2.81 2.81-5.67 4.22-8.58 1.41-2.91 2.76-6.14 4.08-9.71-2.63-2.43-4.55-5.11-5.77-8.01-1.22-2.91-2.11-5.81-2.67-8.72-.56-2.9-1.03-5.9-1.41-9-.37-3.09-1.03-6.23-1.97-9.42 1.88-2.81 4.17-5.11 6.89-6.89 2.72-1.78 5.68-3.23 8.86-4.36 3.19-1.13 6.66-2.06 10.41-2.81s7.69-1.598 11.81-2.53c7.5-2.44 14.21-4.318 20.11-5.63 5.91-1.316 11.72-2.39 17.44-3.238 5.72-.85 11.68-1.64 17.86-2.39 6.19-.75 13.22-1.88 21.1-3.38 1.69 1.68 3.28 2.53 4.78 2.53.75-1.69 1.64-2.2 2.67-1.55 1.04.66 1.46.14 1.27-1.55 1.88 3.18 4.27 5.86 7.17 8.01 2.91 2.16 6.14 3.984 9.7 5.484z"/>
		<path d="M1215 87.438c1.313-3.938 3.422-7.313 6.328-10.126 2.906-2.812 6.094-5.203 9.563-7.17 3.47-1.97 7.08-3.61 10.83-4.923 3.75-1.32 7.31-2.44 10.69-3.38 7.5-3.19 15.52-6.24 24.05-9.14 8.53-2.91 17.25-5.49 26.16-7.74s18.05-3.71 27.42-4.36c9.38-.66 19.22.51 29.54 3.51.56 1.87 1.41 3.65 2.53 5.34 1.13 1.68 2.3 3.37 3.52 5.06 1.22 1.69 2.3 3.33 3.24 4.92.94 1.59 1.5 3.23 1.69 4.92 1.88 1.69 3.38 3.51 4.5 5.48 1.13 1.96 1.31 4.54.56 7.73-1.87 1.5-3.7 2.86-5.48 4.07-1.78 1.22-3.7 2.29-5.76 3.23-6.94-1.69-13.97-2.25-21.09-1.69-7.12.56-13.5 1.03-19.12 1.4-1.69-1.69-3.7-2.53-6.05-2.53s-4.78.37-7.31 1.12l-7.59 2.25c-2.53.75-4.92.93-7.17.56-1.87 1.5-4.17 2.48-6.89 2.95-2.72.47-5.67.89-8.86 1.26-.19.93 0 1.54.56 1.82.57.28.66.89.28 1.83 1.13 1.31 2.58 2.25 4.36 2.81 1.78.56 3.66 1.12 5.63 1.69 1.97.56 3.7 1.26 5.2 2.11 1.5.84 2.53 2.2 3.1 4.08 2.81 0 5.25.65 7.31 1.97 2.06 1.31 3.75 2.9 5.06 4.78 1.32 1.87 2.3 3.89 2.96 6.04.66 2.15.99 4.08.99 5.76.56 1.5 1.22 2.16 1.97 1.97.75-.19 1.6.19 2.54 1.12.56 2.44 1.97 4.92 4.22 7.45 2.25 2.53 4.03 5.3 5.35 8.3.38 4.68.66 8.86.85 12.51.19 3.65-.47 7.36-1.97 11.11-2.81 6.93-6.7 13.12-11.67 18.56-4.97 5.44-10.6 10.26-16.88 14.48-6.28 4.22-12.99 7.83-20.11 10.83s-14.07 5.53-20.82 7.59c-.75-.19-1.5-.19-2.25 0s-.93-.28-.56-1.41c-1.5 1.31-3.14 2.16-4.92 2.53-1.78.38-3.7.52-5.76.42-2.06-.09-4.17-.23-6.32-.42-2.15-.19-4.17-.09-6.04.28-1.31-1.31-2.48-2.57-3.51-3.79-1.03-1.22-1.83-2.77-2.39-4.64-.94 0-1.36-.47-1.26-1.41.1-.94-.23-1.41-.98-1.41 1.13-1.87 1.64-2.95 1.55-3.23-.09-.28-.37-.52-.84-.7-.47-.19-.89-.43-1.27-.71-.37-.28-.47-.7-.28-1.27.75-1.5 1.04-3.23.85-5.2-.18-1.97-.37-3.98-.56-6.05-.19-2.07-.04-4.03.42-5.91.47-1.88 1.83-3.37 4.08-4.5 6.38.75 12.42.52 18.14-.7 5.72-1.22 11.11-2.96 16.17-5.21 5.07-2.25 9.9-4.69 14.49-7.31 4.6-2.63 9.14-4.97 13.64-7.03.57-1.69 1.36-3.09 2.39-4.22 1.04-1.12 2.11-2.16 3.24-3.09 1.13-.94 2.16-1.97 3.1-3.09.94-1.12 1.59-2.53 1.97-4.22.19-1.31-.14-2.11-.98-2.39-.85-.28-1.27-.99-1.27-2.11l-3.09-.85c-3.56-2.07-7.59-3.8-12.09-5.21s-8.35-2.95-11.53-4.64c-2.07 1.12-3.99 1.4-5.77.84-1.78-.57-4.08-1.13-6.89-1.69-6.38-.38-12.52-1.03-18.42-1.97-5.91-.94-11.58-2.62-17.02-5.06-.37-.94-.84-1.78-1.4-2.53-.56-.75-1.6-.94-3.1-.56-1.12-1.5-2.25-2.95-3.37-4.36-1.12-1.41-2.15-2.95-3.09-4.64.38-2.25.66-4.17.85-5.77.19-1.6-.38-3.14-1.69-4.64.75-2.44 1.31-4.41 1.69-5.91s.37-3.47 0-5.91z"/>
		<path d="M1416.72 194.313c.936 5.625.608 10.03-.986 13.218-1.593 3.19-3.843 5.58-6.75 7.18-2.906 1.6-6.234 2.49-9.984 2.67-3.75.19-7.312 0-10.688-.56-1.875-2.62-3.562-5.9-5.062-9.84-1.5-3.94-2.906-8.01-4.22-12.23-1.31-4.22-2.483-8.39-3.514-12.51-1.032-4.12-1.922-7.78-2.672-10.97.937-2.25 1.547-4.83 1.828-7.73.28-2.91.47-5.86.562-8.86.094-3 .188-6.05.282-9.14.093-3.09.328-6.05.703-8.86 1.31-7.87 3.23-15.37 5.76-22.5s4.54-14.53 6.04-22.22c.37-1.69.23-3.28-.42-4.78-.66-1.5-.8-2.91-.43-4.22.18-.75.75-1.26 1.68-1.54.94-.28 1.5-.89 1.69-1.82.56-2.06.7-3.75.42-5.06-.28-1.31.04-2.9.98-4.78.93-1.5 2.1-3.7 3.51-6.61 1.4-2.9 1.92-5.95 1.54-9.14 1.69-1.12 3.28-2.44 4.78-3.94 1.5-1.5 3.04-2.86 4.64-4.07 1.59-1.22 3.37-2.3 5.34-3.24 1.97-.94 4.36-1.41 7.17-1.41 1.5 1.88 2.48 3.94 2.95 6.19l1.41 6.75c.47 2.25 1.17 4.36 2.11 6.33.93 1.97 2.53 3.52 4.78 4.64v5.63c0 2.25.09 4.46.28 6.61.19 2.16.61 4.13 1.26 5.91.65 1.78 1.73 2.95 3.23 3.52-3.38 9-6.52 17.91-9.42 26.72-2.91 8.81-5.3 17.67-7.17 26.58-1.88 8.91-3.05 17.86-3.52 26.86-.47 9 .14 18.1 1.83 27.28z"/>
		<path d="M1661.75 163.375c-4.5 8.063-10.406 14.297-17.72 18.703-7.31 4.406-15.374 8.063-24.186 10.97-8.813 2.905-18.047 5.483-27.703 7.733-9.65 2.25-18.98 5.16-27.98 8.72-2.62 0-4.92.1-6.89.28-1.97.19-3.84.43-5.62.71-1.78.28-3.51.57-5.2.85-1.68.28-3.56.52-5.62.71-.75-.18-1.22-.04-1.4.43-.18.47-.47.89-.84 1.27-3.19.56-6.05.85-8.58.85h-6.33c-2.25 0-4.54.33-6.89.99-2.34.66-4.45.89-6.33.71-14.06-.75-25.07-5.76-33.04-15.04-7.97-9.28-12.42-22.17-13.36-38.67.19-.93.05-1.5-.42-1.68-.47-.19-.89-.47-1.26-.84 0-1.87.23-3.47.7-4.78s.52-3 .14-5.06c4.88-10.31 10.41-19.92 16.6-28.82 6.19-8.9 13.6-16.73 22.22-23.48 1.32-1.12 2.44-2.25 3.38-3.37s1.83-2.25 2.67-3.37c.85-1.12 1.83-2.11 2.96-2.95 1.13-.84 2.53-1.45 4.22-1.83 3.94-4.5 8.63-8.62 14.06-12.37 5.44-3.75 11.16-7.36 17.16-10.83 6-3.46 11.96-6.93 17.86-10.4 5.91-3.47 11.3-7.36 16.17-11.67 2.07.94 3.57 1.22 4.5.85.94-.37 1.97-.37 3.1 0 1.31 2.82 3.14 4.78 5.49 5.91 2.34 1.13 4.69 2.3 7.03 3.52 2.34 1.22 4.55 2.67 6.61 4.36 2.06 1.69 3.66 3.94 4.78 6.75-1.13 0-1.64.42-1.55 1.27.1.85.33 1.69.7 2.53.38.85.52 1.69.42 2.54-.09.85-.79 1.27-2.11 1.27.19.94.8 1.45 1.83 1.55 1.03.1 1.55.61 1.55 1.55 0 .94-.23 1.69-.7 2.25s-.52 1.5-.14 2.81c-3.75 2.44-7.92 4.78-12.52 7.03-4.59 2.26-9.37 4.65-14.34 7.18-4.97 2.53-10.12 5.25-15.47 8.16-5.34 2.91-10.54 6.23-15.61 9.98-5.06 3.75-10.21 7.92-15.46 12.52-5.25 4.59-10.31 9.42-15.19 14.49-4.87 5.06-9.47 10.27-13.78 15.61-4.31 5.34-7.97 10.64-10.97 15.89.38.94.8 1.64 1.27 2.11s.89 1.17 1.27 2.11c6 .37 11.58.33 16.74-.14 5.16-.47 10.36-.14 15.61.99.56-.37.94-.94 1.13-1.69.19-.75.66-1.31 1.41-1.69 10.69-1.12 20.63-2.86 29.81-5.2 9.19-2.34 18.56-4.82 28.13-7.45-1.5-.56-2.86-1.07-4.08-1.54-1.22-.47-2.39-.89-3.52-1.26-.94-.94-.89-1.74.14-2.39 1.03-.66 1.92-1.36 2.67-2.11-2.62-1.5-4.73-3.38-6.33-5.63-1.59-2.25-2.58-5.25-2.95-9 1.13-.94 1.69-2.07 1.69-3.38s-.56-2.35-1.69-3.1c-.75-.19-1.22-.19-1.41 0-.19.19-.33.47-.42.848-.09.37-.23.7-.42.98-.19.28-.66.235-1.41-.14.19-1.69.61-3.094 1.26-4.22.66-1.124 1.17-2.437 1.55-3.937l19.41-12.94c2.06 1.5 4.59 3.14 7.59 4.92 3 1.78 6.14 3.56 9.42 5.34 3.28 1.78 6.66 3.56 10.13 5.34 3.47 1.78 6.7 3.52 9.7 5.21 2.63 1.124 4.97 2.624 7.03 4.5 2.07 1.874 4.04 3.8 5.91 5.765 1.88 1.97 3.8 3.89 5.77 5.768s4.27 3.47 6.89 4.78c-.37 2.44-.28 4.41.28 5.91s.75 3.37.57 5.62z"/>
		<path d="M1720.875 162.813c-1.688.375-2.906 1.36-3.656 2.953-.75 1.593-1.46 3.234-2.11 4.922-.66 1.687-1.32 3.234-1.97 4.64-.66 1.406-1.64 2.11-2.96 2.11-.19 1.5-.71 2.812-1.55 3.937-.85 1.125-1.64 2.297-2.39 3.516-.75 1.22-1.32 2.54-1.69 3.94-.38 1.41-.19 3.05.56 4.92-1.5 1.13-2.44 2.72-2.82 4.78-.38 2.07-.8 4.04-1.27 5.91-.47 1.88-1.27 3.47-2.39 4.78-1.13 1.31-3.19 1.88-6.19 1.69-.57.75-.66 1.22-.29 1.41.37.19.66.85.84 1.97-2.06-.37-3.61-.23-4.64.42-1.03.66-2.3 1.08-3.8 1.27-3.57-1.12-6.52-3.09-8.86-5.9-2.35-2.81-4.41-5.95-6.19-9.42-1.78-3.46-3.38-6.98-4.78-10.54-1.41-3.56-2.77-6.65-4.08-9.28.56-2.06.66-4.08.28-6.05-.38-1.97-1.03-3.61-1.97-4.92 9.19-19.5 19.22-40.31 30.09-62.44 10.87-22.12 21.19-43.96 30.94-65.53 4.31 1.69 8.58 3.61 12.8 5.77 4.22 2.16 8.06 4.64 11.53 7.46 3.47 2.82 6.42 6.05 8.86 9.71 2.44 3.66 4.03 7.74 4.78 12.24-.38 1.13-.8 1.55-1.27 1.27s-.89-.14-1.27.42c.75.94 1.17 1.6 1.26 1.97.09.38.09.75 0 1.13-.1.38-.14.89-.14 1.55s.28 1.55.84 2.67c-.75-.19-1.27-.09-1.55.28-.28.38-.89.38-1.83 0 .75 2.06.99 3.75.71 5.06-.28 1.31-.71 2.48-1.27 3.52-.56 1.03-1.03 2.16-1.41 3.38-.38 1.22-.28 2.77.28 4.64-.56 0-.99.14-1.27.42-.28.28-.52.56-.71.85-.19.28-.43.56-.71.85-.28.28-.7.32-1.27.14.56 4.12.75 8.25.56 12.37-.19 4.13-.33 8.3-.43 12.52-.09 4.22-.04 8.62.14 13.22.19 4.59.85 9.32 1.97 14.2 6.75-3.94 12.14-9 16.17-15.19 4.04-6.19 7.32-13.13 9.85-20.81 2.53-7.69 4.45-15.94 5.77-24.75 1.31-8.82 2.71-17.82 4.21-27 1.69-1.69 3-3.75 3.94-6.19.94-2.44 1.78-5.02 2.53-7.73l2.25-8.15c.75-2.71 1.69-5.2 2.81-7.45 2.81.38 5.2 1.27 7.17 2.67 1.97 1.41 3.79 2.91 5.48 4.5 1.69 1.6 3.47 3.1 5.34 4.5 1.87 1.41 4.22 2.3 7.03 2.67 2.25 3.19 4.31 6.28 6.19 9.28 1.87 3 3.09 6.19 3.65 9.57-.94 1.5-1.64 3.19-2.11 5.06-.47 1.87-.99 3.75-1.55 5.62s-1.31 3.61-2.25 5.2c-.94 1.6-2.25 2.96-3.94 4.08-.56 4.88-1.26 9.33-2.11 13.36-.84 4.03-1.68 8.02-2.53 11.95-.84 3.94-1.54 8.02-2.11 12.24-.56 4.22-.75 8.86-.56 13.92-1.5 4.31-3.09 8.91-4.78 13.78-1.69 4.88-3 9.28-3.94 13.22-3 2.44-5.35 5.34-7.03 8.72-1.69 3.38-3.47 6.75-5.35 10.13-.75.75-1.22.94-1.41.57-.19-.38-.85-.66-1.97-.85.18.75.18 1.31 0 1.69-.19.38-.42.7-.71.99-.28.28-.47.7-.56 1.26-.1.56.04 1.31.42 2.25-2.63 1.12-4.97 2.72-7.03 4.78-2.07 2.06-4.27 3.94-6.61 5.62-2.35 1.69-5.16 2.81-8.44 3.37-3.28.56-7.55-.09-12.8-1.97-7.69-5.62-14.49-12.09-20.39-19.4-5.91-7.31-10.74-16.03-14.49-26.15z"/>
		<path d="M1995.72 55.656c.186 1.313.233 2.297.14 2.953-.094.65-.188 1.26-.282 1.82-.094.56-.14 1.17-.14 1.83 0 .65.187 1.64.562 2.95-3.938 6.37-8.484 10.73-13.64 13.07-5.157 2.34-10.735 4.03-16.735 5.06-6 1.03-12.14 2.11-18.422 3.23-6.28 1.12-12.515 3.56-18.703 7.31-2.438-.94-4.64-.94-6.61 0-1.968.93-4.827 1.22-8.578.84-1.125 1.12-2.53 1.92-4.218 2.39-1.688.47-3.375.98-5.063 1.54.75 1.69 1.08 3.42.99 5.2-.09 1.78.14 3.23.71 4.36 6.56.56 13.83.47 21.8-.28 7.97-.75 15.8-1.22 23.49-1.41.19.94.1 1.54-.28 1.83-.37.28-.47.79-.28 1.54 1.32.93 2.63 2.11 3.94 3.51 1.32 1.41 2.63 2.77 3.94 4.08 1.31 1.32 2.67 2.39 4.08 3.24 1.41.84 3.05 1.17 4.93.98.75 1.5 1.27 3.14 1.55 4.92.28 1.78.05 3.61-.7 5.48-3 2.06-6 4.17-9 6.33s-6.14 4.08-9.42 5.76c-3.28 1.69-6.75 3.05-10.4 4.08-3.66 1.03-7.73 1.45-12.23 1.26H1925c-.47 0-1.08-.28-1.83-.84-1.5.94-3.61 1.22-6.327.84-2.72-.38-4.83-.1-6.33.84-2.063-.94-4.547-1.36-7.453-1.27-2.908.09-5.486-.23-7.737-.98-3 3.93-5.72 8.15-8.156 12.65-2.436 4.5-4.592 9.28-6.467 14.35 6.375.94 11.67 1.31 15.89 1.12 4.22-.19 8.203-.52 11.953-.99s7.596-.94 11.534-1.41c3.936-.47 8.905-.61 14.905-.42 3.75-2.06 8.2-3.42 13.356-4.08 5.157-.66 9.89-1.74 14.204-3.24 1.5.56 2.816 1.54 3.94 2.95 1.126 1.41 2.204 2.72 3.235 3.94 1.03 1.22 2.11 2.29 3.237 3.23 1.125.94 2.53 1.31 4.218 1.12.75.75 1.266 1.64 1.547 2.67.28 1.03.51 2.01.7 2.95.19.94.51 1.73.98 2.39.47.65 1.26.89 2.39.7-2.81 6.19-6.05 10.92-9.71 14.2-3.66 3.28-7.83 5.77-12.52 7.45-4.69 1.69-9.89 3-15.61 3.94-5.72.94-12.05 2.06-18.99 3.38-1.69.38-3.1.33-4.22-.14-1.13-.47-2.44-.7-3.94-.7-4.32.94-9.47 1.78-15.47 2.53s-12.1 1.03-18.29.84c-6.19-.19-12.09-.99-17.72-2.39-5.63-1.41-10.22-3.89-13.78-7.46-1.5-1.31-2.49-2.86-2.96-4.64-.47-1.78-1.73-3.14-3.8-4.08-.19-2.44-.57-5.16-1.13-8.16-.56-3-1.12-6.14-1.69-9.42-.56-3.28-.99-6.52-1.27-9.7-.28-3.19-.14-6.1.42-8.72.56-2.82 1.73-5.35 3.51-7.6 1.78-2.25 2.39-4.69 1.83-7.32.94-.19 1.5-.7 1.69-1.55.19-.84.94-1.17 2.25-.98 1.12-3.37 2.34-6.56 3.65-9.56 1.31-3 2.67-5.91 4.08-8.72 1.4-2.81 2.81-5.67 4.22-8.58 1.4-2.91 2.76-6.14 4.08-9.71-2.63-2.43-4.55-5.11-5.77-8.01-1.22-2.91-2.11-5.81-2.67-8.72-.56-2.9-1.03-5.9-1.41-9-.38-3.09-1.03-6.23-1.97-9.42 1.87-2.81 4.17-5.11 6.89-6.89 2.72-1.78 5.67-3.23 8.86-4.36 3.18-1.13 6.65-2.06 10.4-2.81s7.69-1.598 11.81-2.53c7.5-2.44 14.21-4.318 20.11-5.63 5.91-1.316 11.72-2.39 17.44-3.238 5.72-.85 11.67-1.64 17.86-2.39 6.19-.75 13.22-1.88 21.09-3.38 1.69 1.68 3.28 2.53 4.78 2.53.75-1.69 1.64-2.2 2.67-1.55 1.03.66 1.45.14 1.27-1.55 1.87 3.18 4.26 5.86 7.17 8.01 2.9 2.16 6.14 3.984 9.7 5.484z"/>
		<path d="M2044.438 184.75c-2.063 7.5-3.89 13.172-5.485 17.016-1.594 3.843-3.984 7.828-7.172 11.953-2.43-.38-4.12-.1-5.06.84-.94.93-1.97 1.78-3.09 2.53-1.69.37-2.9.37-3.65 0s-1.4-.8-1.97-1.27c-.56-.47-1.26-.94-2.11-1.41-.84-.47-2.11-.71-3.79-.71-.37-1.5-.79-2.91-1.26-4.22-.47-1.32-1.73-1.78-3.79-1.41.38-1.5.47-2.77.29-3.8-.19-1.03-.42-1.97-.7-2.82-.28-.84-.52-1.69-.71-2.53-.18-.84-.09-1.92.28-3.23-.93 0-1.68-.66-2.25-1.97-.56-1.31-1.22-2.63-1.97-3.94.57-3.38 1.13-6.57 1.69-9.57.57-3 1.27-5.81 2.11-8.44.85-2.63 1.55-5.25 2.11-7.88.56-2.63.28-5.34-.84-8.16.75.56 1.32.42 1.69-.42.38-.85.66-1.97.85-3.38.19-1.41.28-2.82.28-4.22 0-1.41-.09-2.58-.28-3.52 1.88-4.87 3.42-9.89 4.64-15.05 1.22-5.16 2.35-10.27 3.38-15.33 1.03-5.07 2.11-10.03 3.24-14.91 1.13-4.88 2.63-9.38 4.5-13.5 2.07-.38 4.36-.14 6.89.7 2.53.84 4.08 1.92 4.64 3.23 4.88-3.75 9.19-8.3 12.94-13.64s7.6-10.55 11.53-15.61c3.94-5.06 8.3-9.56 13.08-13.5 4.78-3.94 10.83-6.28 18.14-7.03 3.75 2.81 7.92 5.67 12.52 8.58 4.59 2.9 8.39 6.7 11.39 11.39 1.5.75 2.77 1.55 3.8 2.39 1.03.84 2.3 1.73 3.8 2.67V68c2.25 2.063 4.08 4.453 5.49 7.172 1.41 2.72 2.67 5.622 3.8 8.72l3.38 9.28c1.13 3.09 2.44 6.044 3.94 8.86-.37.934-.56 1.73-.56 2.39 0 .653.14 1.36.42 2.11.28.75.52 1.5.71 2.25.19.75.19 1.78 0 3.09-.56 8.25-3.23 14.905-8.01 19.97-4.78 5.06-10.55 9.232-17.3 12.514s-13.97 6.048-21.65 8.3c-7.69 2.25-14.62 4.686-20.81 7.31 0 .75.33 1.125.99 1.125s.89.47.71 1.41c4.5 2.82 8.06 5.07 10.69 6.75 2.62 1.69 5.11 3.1 7.45 4.22 2.34 1.13 4.88 2.11 7.59 2.95 2.72.85 6.51 1.83 11.39 2.95 4.87 1.12 8.67 2.01 11.39 2.67 2.72.66 5.2 1.22 7.45 1.69s4.55.84 6.89 1.12c2.35.28 5.67.61 9.99.99 1.69 1.69 3.14 3.71 4.36 6.05 1.22 2.35 2.02 4.69 2.39 7.03.38 2.35.47 4.6.29 6.75-.19 2.16-.84 3.9-1.97 5.21.19.57.61.8 1.27.71.65-.09 1.36-.05 2.11.14-1.13.75-2.07 1.69-2.82 2.82l-2.25 3.38c-.75 1.13-1.59 2.11-2.53 2.95-.94.85-2.25 1.36-3.94 1.55-5.81 2.25-13.12 2.39-21.94.42-8.81-1.97-19.97-5.58-33.47-10.83-6.75-2.62-12.23-4.92-16.45-6.89-4.22-1.96-7.87-3.93-10.97-5.9-3.09-1.97-5.9-4.08-8.44-6.33-2.53-2.25-5.57-4.97-9.14-8.16zm40.218-96.47c-2.062 3-4.36 5.72-6.89 8.157-2.532 2.438-4.97 4.922-7.313 7.454-2.344 2.54-4.453 5.35-6.328 8.44-1.875 3.1-3.188 6.71-3.938 10.83 6.563-.75 13.407-2.58 20.532-5.48 7.12-2.9 13.87-5.67 20.25-8.29-.75-5.81-2.77-10.5-6.05-14.06-3.28-3.56-6.71-5.9-10.27-7.03z"/>
		<path d="M2193.28 217.938c-1.874 0-4.78-.282-8.718-.844-3-3.188-5.67-7.547-8.015-13.078-2.344-5.532-4.125-11.438-5.344-17.72-1.22-6.28-1.78-12.562-1.687-18.843.093-6.28 1.17-11.86 3.234-16.734 0-.19.89-2.44 2.672-6.75 1.78-4.32 4.078-9.8 6.89-16.46 2.813-6.66 6-14.07 9.563-22.22 3.563-8.16 7.125-16.17 10.688-24.05 3.562-7.88 6.984-15.05 10.265-21.52 3.28-6.47 6.14-11.49 8.578-15.05 1.688-2.63 3.235-5.16 4.64-7.6 1.407-2.44 2.766-4.69 4.08-6.75 2.062-3.38 3.983-6.52 5.765-9.42 1.79-2.91 3.75-5.53 5.91-7.88 2.16-2.35 4.55-4.41 7.17-6.19 2.63-1.79 5.81-3.33 9.56-4.64 2.25.93 4.22 1.92 5.91 2.95 1.69 1.03 3.19 2.29 4.5 3.79l.85 3.94c.38 1.31.99 2.2 1.83 2.67.85.47 1.55.7 2.11.7 2.44.56 4.55 1.17 6.33 1.83 1.78.65 3.71 1.08 5.77 1.26.75 1.12 1.46 2.25 2.11 3.37.66 1.12 1.36 2.16 2.11 3.09 3.75 5.44 6.85 10.69 9.28 15.75 2.44 5.06 2.44 10.59 0 16.59l.28 3.09c.94 1.31 1.41 2.53 1.41 3.66 0 1.12-.18 2.72-.56 4.78-.18 1.5-.33 3.14-.42 4.92-.09 1.78.14 3.7.7 5.76l1.97 2.25c3 1.5 5.91 2.25 8.72 2.25 3.75 0 7.13-.85 10.13-2.53 3-1.69 5.82-3.38 8.44-5.07 2.06-1.5 3.99-2.72 5.77-3.66 1.78-.94 3.52-1.59 5.21-1.97 3.94-3.75 7.55-7.08 10.83-9.98 3.28-2.91 6.7-5.86 10.26-8.86 6.75-5.44 13.31-11.3 19.69-17.58 6.37-6.28 11.44-14.11 15.19-23.49 2.07-1.31 4.41-1.97 7.04-1.97s5.25.51 7.88 1.54 5.25 2.2 7.88 3.51c.56.37 1.08.65 1.55.84.47.19.99.47 1.55.84 0 2.06.85 3.94 2.53 5.63.94.75 1.6 1.22 1.97 1.4l1.13.56c1.5.94 2.77 1.78 3.8 2.53 1.03.75 1.83 1.78 2.39 3.09 1.69 5.06 4.5 9 8.44 11.81-.37 2.06-.28 4.08.28 6.05.56 1.97 1.22 3.89 1.97 5.77.38.75.66 1.45.84 2.11.19.66.47 1.45.85 2.39l-6.19-.56.84 6.18c.57 3.19.33 6.75-.7 10.69-1.03 3.93-2.2 7.03-3.51 9.28.38 5.62.56 10.07.56 13.36 0 3.28-.19 6.32-.56 9.14-.37 2.81-.98 5.48-1.83 8.01-.84 2.53-1.92 5.2-3.23 8.02.75 14.25-.89 27.28-4.92 39.1-4.03 11.81-8.39 22.87-13.07 33.18-.56 1.31-1.12 2.53-1.68 3.66-.56 1.13-1.03 2.25-1.41 3.38-2.06.56-3.94 1.22-5.62 1.97-1.69.75-3.28 1.59-4.78 2.53-2.06 1.31-4.13 2.39-6.19 3.24-2.06.84-4.22 1.26-6.47 1.26-9-6.57-13.64-17.91-13.92-34.03-.28-16.13 3.14-36.66 10.26-61.6 1.31-.94 1.88-2.35 1.69-4.22v-3.09l-2.81-.28c-.94 0-1.78.09-2.53.28-.75.19-1.31 1.03-1.69 2.53-6 4.31-12.51 8.77-19.54 13.36-7.03 4.59-14.3 8.81-21.8 12.66-7.5 3.84-15.14 7.03-22.92 9.56-7.78 2.53-15.33 3.8-22.64 3.8-18.75 0-32.91-9.57-42.47-28.69l-2.53-5.06-2.81 4.5c-.56.94-1.54 2.76-2.95 5.48-1.41 2.72-2.81 5.86-4.22 9.42-1.41 3.56-2.62 7.21-3.66 10.97-1.03 3.75-1.36 7.03-.98 9.84-2.25 2.06-4.45 4.4-6.61 7.03-2.15 2.62-3.7 5.62-4.64 9-.37.94-.47 1.83-.28 2.67.19.84.47 1.73.84 2.67-.19 1.31-.56 2.25-1.12 2.81s-1.22 1.13-1.97 1.69c-.93.94-1.87 1.92-2.81 2.95-.94 1.03-1.78 2.2-2.53 3.51-.37 1.12-.65 2.29-.84 3.51-.19 1.22-.38 2.29-.56 3.23 0 2.07-.28 3.47-.85 4.22-1.87 3.94-3.51 7.17-4.92 9.71-1.41 2.53-2.77 4.45-4.08 5.77-1.31 1.31-2.67 2.2-4.08 2.67-1.4.47-3.05.7-4.92.7z"/>
		<path d="M2610.156 190.375c-1.125 3.188-2.765 6.422-4.922 9.703-2.156 3.28-4.687 6.188-7.593 8.72-2.9 2.53-6.14 4.64-9.7 6.327-3.56 1.688-7.31 2.625-11.25 2.813-2.44-.563-4.08-1.172-4.92-1.83-.84-.655-1.73-1.264-2.67-1.827-.56-.37-1.08-.7-1.54-.98-.47-.28-.89-.51-1.26-.7l-3.37-1.4 1.13-3.65c.38-1.5.28-2.67-.28-3.51-.56-.84-1.68-2.01-3.37-3.51l-1.69-1.69c-.56-.56-1.03-1.12-1.4-1.69l-4.78-5.34 7.6-1.97c4.69-1.31 7.83-3 9.42-5.06 1.59-2.06 2.2-5.53 1.83-10.4-3.75-.75-6.89-.84-9.42-.28-2.53.56-5.11 1.22-7.73 1.97-3.37.94-6.79 1.74-10.26 2.39-3.47.66-7.26.99-11.39.99-1.5 0-2.91-.05-4.22-.14-1.31-.09-2.72-.23-4.22-.42l-2.81-.56c-.37-2.06-.75-3.23-1.12-3.51-.37-.28-.75-.61-1.12-.98-.93-.93-1.92-2.2-2.95-3.79-1.03-1.59-1.26-3.61-.7-6.05-.94-1.69-1.5-3.37-1.69-5.06-1.12 2.25-1.96 4.59-2.53 7.03l-1.12 2.81-2.81.56c-.38.19-.66.61-.85 1.27-.18.66-.28 1.17-.28 1.55l-1.4 4.78c-.38.37-.75.7-1.13.98-.37.28-.75.61-1.12.99-.37 1.69-.84 3.38-1.4 5.06-.56 1.69-1.12 3.28-1.68 4.78-.94 2.44-1.74 4.83-2.39 7.18-.66 2.34-.89 4.64-.71 6.89l-1.12 3.09c-.94 1.13-1.97 2.02-3.09 2.68-1.12.65-2.25 1.26-3.37 1.82-.38.38-.89.7-1.55.99-.66.28-1.17.52-1.55.7l-.84 3.1-3.38.56c-2.07.38-3.52.66-4.36.84-.85.19-1.83.28-2.96.28l-2.81-.28c-2.06-1.69-3.65-3.05-4.78-4.08-1.13-1.03-2.44-2.01-3.94-2.95-1.69-2.25-2.62-3.94-2.81-5.06-.18-1.13-.37-2.16-.56-3.1-.37-1.13-.61-2.06-.7-2.81-.1-.75-.33-1.31-.7-1.69l-3.65-3.38 3.09-2.53.28-4.78c3.75-9.56 7.73-18.75 11.95-27.56 4.22-8.82 8.58-17.82 13.08-27 1.5-3 2.95-6 4.36-9 1.4-3 2.86-6 4.36-9-.19-.57-.29-1.22-.29-1.97s.19-1.6.56-2.53c2.06-3.19 3.75-6.05 5.06-8.58 1.32-2.53 2.63-5.11 3.94-7.74 1.5-3.18 3.05-6.28 4.64-9.28 1.59-3 3.61-6.09 6.05-9.28l4.5-1.97c.57-.19 1.22-.42 1.97-.7.75-.28 1.6-.42 2.53-.42l4.22.57c5.25-2.44 9.85-5.86 13.78-10.26 3.94-4.41 7.97-9.7 12.1-15.89l2.82-3.94 3.66 2.25c.94.56 2.25 1.08 3.94 1.55s3.47.98 5.35 1.55c3.38.75 6.56 1.59 9.57 2.53 3 .93 5.43 2.34 7.31 4.22 1.12 3 1.78 5.25 1.97 6.75.18 1.5.47 3 .84 4.5.56 3.18 1.07 6.37 1.54 9.56.47 3.18.79 6.75.98 10.68.93 3.19 1.73 6.33 2.39 9.42.65 3.1 1.26 6.24 1.82 9.43.94 4.5 1.88 8.86 2.82 13.08.94 4.22 2.16 8.2 3.66 11.96 1.5 0 2.44.09 2.82.28.94-.37 1.92-.66 2.95-.84 1.03-.19 2.2-.38 3.52-.56l3.1-.28 1.12 2.81c.19.94 1.13 1.88 2.81 2.81 2.44.19 4.22.71 5.34 1.55 1.13.85 2.16 1.74 3.09 2.68.75.75 1.5 1.31 2.25 1.69l4.22 1.69-2.25 4.22c-1.88 3.37-4.55 6.61-8.02 9.7-3.47 3.09-7.36 5.67-11.67 7.73.18 1.12.33 2.2.42 3.23.09 1.03.32 2.11.7 3.236.56 3.19 1.03 6.47 1.4 9.84.37 3.374.37 6.84 0 10.405l-.57 1.12zm-81.28-48.656c5.624-.38 10.733-.8 15.327-1.27 4.594-.47 9.703-1.27 15.328-2.39-1.31-5.63-2.71-11.49-4.21-17.58-1.5-6.09-3.09-12.14-4.78-18.14l-1.69 2.81c-3.75 3.94-7.36 8.34-10.83 13.22-3.47 4.87-6.42 9.47-8.86 13.78l-3.37 5.06c-1.12 1.68-2.15 3.37-3.09 5.06 1.13-.19 2.21-.28 3.24-.28 1.03 0 2.02-.1 2.96-.28z"/>
		<path d="M2841.125 163.375c-4.5 8.063-10.406 14.297-17.72 18.703-7.31 4.406-15.374 8.063-24.186 10.97-8.82 2.905-18.05 5.483-27.71 7.733s-18.99 5.16-27.99 8.72c-2.63 0-4.92.1-6.89.28-1.97.19-3.85.43-5.63.71-1.78.28-3.52.57-5.21.85s-3.56.52-5.63.71c-.75-.18-1.22-.04-1.41.43-.19.47-.47.89-.85 1.27-3.19.56-6.05.85-8.58.85H2703c-2.25 0-4.545.33-6.89.99-2.342.66-4.45.89-6.326.71-14.062-.75-25.08-5.76-33.046-15.04-7.97-9.28-12.42-22.17-13.36-38.67.19-.93.047-1.5-.42-1.68-.47-.19-.89-.47-1.267-.84 0-1.87.23-3.47.7-4.78s.52-3 .14-5.06c4.88-10.31 10.41-19.92 16.6-28.82 6.19-8.9 13.59-16.73 22.22-23.48 1.31-1.12 2.44-2.25 3.37-3.37.94-1.12 1.83-2.25 2.67-3.37.85-1.12 1.83-2.11 2.96-2.95 1.13-.84 2.53-1.45 4.22-1.83 3.94-4.5 8.63-8.62 14.06-12.37 5.44-3.75 11.16-7.36 17.16-10.83 6-3.46 11.95-6.93 17.86-10.4 5.91-3.47 11.3-7.36 16.17-11.67 2.06.94 3.56 1.22 4.5.85s1.97-.37 3.09 0c1.32 2.82 3.14 4.78 5.49 5.91s4.69 2.3 7.03 3.52c2.35 1.22 4.55 2.67 6.61 4.36 2.07 1.69 3.66 3.94 4.79 6.75-1.12 0-1.64.42-1.54 1.27.1.85.33 1.69.71 2.53.38.85.52 1.69.42 2.54-.09.85-.79 1.27-2.11 1.27.19.94.8 1.45 1.83 1.55 1.03.1 1.55.61 1.55 1.55 0 .94-.23 1.69-.7 2.25-.46.56-.51 1.5-.14 2.81-3.75 2.44-7.92 4.78-12.51 7.03-4.59 2.26-9.37 4.65-14.34 7.18-4.97 2.53-10.12 5.25-15.47 8.16-5.34 2.91-10.54 6.23-15.61 9.98-5.06 3.75-10.21 7.92-15.46 12.52-5.25 4.59-10.32 9.42-15.19 14.49-4.88 5.06-9.47 10.27-13.78 15.61-4.32 5.34-7.97 10.64-10.97 15.89.37.94.79 1.64 1.26 2.11s.89 1.17 1.27 2.11c6 .37 11.58.33 16.73-.14 5.15-.47 10.36-.14 15.61.99.56-.37.93-.94 1.12-1.69.19-.75.66-1.31 1.41-1.69 10.69-1.12 20.63-2.86 29.81-5.2 9.19-2.34 18.56-4.82 28.12-7.45-1.5-.56-2.86-1.07-4.07-1.54-1.22-.47-2.39-.89-3.52-1.26-.94-.94-.89-1.74.14-2.39 1.03-.66 1.92-1.36 2.67-2.11-2.62-1.5-4.73-3.38-6.33-5.63-1.59-2.25-2.57-5.25-2.95-9 1.13-.94 1.69-2.07 1.69-3.38s-.56-2.35-1.69-3.1c-.75-.19-1.22-.19-1.4 0-.18.19-.32.47-.42.848-.09.37-.23.7-.42.98-.18.28-.65.235-1.4-.14.19-1.69.61-3.094 1.27-4.22.65-1.124 1.17-2.437 1.55-3.937l19.41-12.94c2.06 1.5 4.59 3.14 7.59 4.92 3 1.78 6.14 3.56 9.42 5.34 3.28 1.78 6.66 3.56 10.12 5.34 3.47 1.78 6.71 3.52 9.71 5.21 2.63 1.124 4.97 2.624 7.03 4.5 2.06 1.874 4.03 3.8 5.91 5.765 1.88 1.97 3.8 3.89 5.77 5.768 1.97 1.88 4.27 3.47 6.89 4.78-.37 2.44-.28 4.41.28 5.91s.75 3.37.56 5.62z"/>
	</g>
</svg>