<svg version="1.1" id="Layer_1" xmlns="http://www.w3.org/2000/svg" xmlns:xlink="http://www.w3.org/1999/xlink" x="0px" y="0px"
	 width="100%" viewBox="0 0 1024 576" enable-background="new 0 0 1024 576" xml:space="preserve">
<path fill="#000000" opacity="1.000000" stroke="none" 
	d="
M484.949402,309.041351 
	C492.978455,296.213196 500.200134,283.303497 509.749786,271.903259 
	C513.039124,267.976532 517.610229,267.166840 521.829773,265.369598 
	C522.229736,265.199249 522.967224,265.225525 523.259277,265.485168 
	C529.644836,271.162842 539.043945,273.791901 541.344910,283.604736 
	C546.000854,303.460297 550.733276,323.297974 555.477478,343.132660 
	C556.087646,345.683716 557.058899,348.126312 558.915771,350.790283 
	C560.314209,346.829132 561.849121,343.335541 562.787292,339.688385 
	C569.938721,311.886414 576.535400,283.950104 583.199585,256.029572 
	C586.734558,241.219437 590.122437,226.304550 593.600830,211.487854 
	C597.419861,195.220520 602.937683,179.296677 604.949463,162.608307 
	C605.454529,158.419250 607.172791,156.873642 611.660950,158.132401 
	C616.419617,159.467026 621.357971,160.334564 626.308838,158.063110 
	C629.320251,156.681473 631.263489,158.227325 631.297852,161.439987 
	C631.370544,168.237442 631.677368,174.957840 629.608093,181.723419 
	C626.067200,193.300262 624.060547,205.363251 620.764954,216.945190 
	C616.670227,231.335587 614.311218,246.058640 610.573425,260.498993 
	C606.215881,277.333832 601.888062,294.247498 598.849426,311.431549 
	C597.725830,317.785522 596.081238,324.115479 593.967163,330.211151 
	C590.211426,341.040283 587.785034,352.229401 584.439758,363.165924 
	C581.331543,373.327606 576.982178,383.105713 574.975159,393.603943 
	C574.453735,396.331360 572.265991,396.750397 570.144104,397.152191 
	C567.210938,397.707581 564.232178,398.020355 561.295776,398.560913 
	C549.356567,400.759003 547.718018,400.052673 543.092651,389.043884 
	C536.608765,373.611694 530.732910,358.088715 526.874634,341.600800 
	C524.303467,330.613373 523.380981,319.042542 518.255310,307.881165 
	C513.786743,315.252350 509.438232,322.239868 505.273834,329.335510 
	C497.704437,342.232941 491.434448,355.883759 483.747070,368.660706 
	C475.808105,381.855835 466.966553,394.621887 457.020233,406.454102 
	C448.284546,416.846283 432.056305,414.154510 425.757294,404.240051 
	C416.331024,389.403442 409.728577,373.342041 404.479004,356.627747 
	C401.445557,346.969513 397.638245,337.553436 394.635956,327.886505 
	C389.419800,311.091278 383.462036,294.532715 380.600555,277.022369 
	C378.944122,266.885986 375.858002,256.962555 374.314484,246.757126 
	C373.722626,242.844070 373.403259,238.888290 373.015289,234.946503 
	C372.787109,232.628418 373.530029,230.677444 375.486450,229.284714 
	C377.698303,227.710129 379.241547,230.368942 380.615051,230.325714 
	C386.271851,230.147720 386.941650,236.059845 390.871185,238.015411 
	C392.638550,238.894928 392.754913,242.771240 393.993988,245.087997 
	C399.666962,255.694962 402.987427,267.109528 406.265289,278.608459 
	C409.171661,288.804016 413.118317,298.698181 416.271027,308.829559 
	C421.205902,324.687988 427.642090,340.011230 432.623138,355.873016 
	C434.993195,363.420166 438.201843,371.060425 442.649933,378.338135 
	C446.329407,375.163147 449.646088,372.467896 450.962830,368.062714 
	C451.243256,367.124512 451.762299,366.208130 452.355286,365.420105 
	C465.430420,348.044678 473.359222,327.695526 484.949402,309.041351 
z"/>
</svg>