<?xml version="1.0" standalone="no"?>
<!DOCTYPE svg PUBLIC "-//W3C//DTD SVG 20010904//EN"
 "http://www.w3.org/TR/2001/REC-SVG-20010904/DTD/svg10.dtd">
<svg version="1.0" xmlns="http://www.w3.org/2000/svg"
 width="1962.000000pt" height="328.000000pt" viewBox="0 0 1962.000000 328.000000"
 preserveAspectRatio="xMidYMid meet">

<g transform="translate(0.000000,328.000000) scale(0.100000,-0.100000)"
fill="#000000" stroke="none">
<path d="M5550 2607 c-78 -18 -134 -20 -680 -26 -669 -7 -643 -4 -700 -83 -57
-78 -49 -124 28 -160 46 -23 47 -24 50 -76 4 -68 -19 -179 -75 -367 -91 -301
-212 -609 -293 -747 -40 -66 -45 -71 -127 -111 -93 -45 -113 -66 -120 -130 -4
-34 -1 -46 17 -62 21 -19 41 -20 684 -26 446 -4 674 -10 701 -17 22 -6 67 -12
101 -12 51 0 67 4 100 28 88 65 228 242 293 373 33 65 41 92 41 136 0 76 -27
103 -104 103 -30 0 -67 -5 -83 -10 -15 -6 -78 -62 -139 -125 -94 -98 -122
-120 -186 -150 -99 -47 -221 -69 -348 -62 -119 6 -150 19 -150 61 0 37 50 228
79 306 30 79 56 117 92 135 38 20 72 13 106 -21 24 -24 25 -28 18 -116 -9
-106 -8 -108 79 -108 87 0 131 29 201 134 104 156 173 354 182 518 5 94 5 97
-20 122 -21 21 -36 26 -78 26 -94 0 -139 -37 -200 -164 -18 -37 -43 -76 -56
-86 -33 -26 -85 -35 -136 -23 -39 8 -42 11 -41 40 1 17 23 91 49 164 80 229
99 244 295 244 158 -1 220 -15 269 -64 20 -20 42 -56 50 -80 20 -69 49 -91
120 -91 73 0 106 12 149 53 91 87 136 274 97 405 -29 96 -87 111 -265 69z"/>
<path d="M18890 2607 c-78 -18 -134 -20 -680 -26 -669 -7 -643 -4 -700 -83
-57 -78 -49 -124 28 -160 46 -23 47 -24 50 -76 4 -68 -19 -179 -75 -367 -91
-301 -212 -609 -293 -747 -40 -66 -45 -71 -127 -111 -93 -45 -113 -66 -120
-130 -4 -34 -1 -46 17 -62 21 -19 41 -20 684 -26 446 -4 674 -10 701 -17 22
-6 67 -12 101 -12 51 0 67 4 100 28 88 65 228 242 293 373 33 65 41 92 41 136
0 76 -27 103 -104 103 -30 0 -67 -5 -83 -10 -15 -6 -78 -62 -139 -125 -94 -98
-122 -120 -186 -150 -99 -47 -221 -69 -348 -62 -119 6 -150 19 -150 61 0 37
50 228 79 306 30 79 56 117 92 135 38 20 72 13 106 -21 24 -24 25 -28 18 -116
-9 -106 -8 -108 79 -108 87 0 131 29 201 134 104 156 173 354 182 518 5 94 5
97 -20 122 -21 21 -36 26 -78 26 -94 0 -139 -37 -200 -164 -18 -37 -43 -76
-56 -86 -33 -26 -85 -35 -136 -23 -39 8 -42 11 -41 40 1 17 23 91 49 164 80
229 99 244 295 244 158 -1 220 -15 269 -64 20 -20 42 -56 50 -80 20 -69 49
-91 120 -91 73 0 106 12 149 53 91 87 136 274 97 405 -29 96 -87 111 -265 69z"/>
<path d="M951 2600 c-95 -13 -192 -45 -238 -79 -45 -33 -83 -101 -83 -150 0
-32 7 -41 68 -88 28 -22 26 0 57 -778 26 -670 26 -669 92 -700 28 -14 56 -16
127 -13 78 3 99 8 138 31 60 35 95 77 338 407 235 318 280 374 291 363 4 -4
18 -165 32 -358 26 -387 30 -405 92 -431 40 -16 154 -18 208 -3 46 12 99 59
177 154 89 109 400 534 680 929 247 348 282 390 390 469 114 83 122 189 17
233 -81 34 -373 30 -502 -7 -51 -14 -109 -73 -125 -126 -11 -36 -11 -46 4 -67
9 -14 35 -35 57 -47 39 -19 41 -23 36 -56 -4 -23 -49 -100 -124 -210 -126
-188 -179 -251 -195 -235 -23 23 -61 352 -49 419 11 55 17 62 102 109 107 58
133 113 84 172 -38 46 -129 63 -361 69 -294 9 -501 -20 -593 -80 -46 -30 -86
-105 -76 -139 4 -13 27 -44 52 -69 43 -44 45 -50 55 -128 l10 -82 -53 -77
c-70 -102 -132 -183 -158 -207 -32 -28 -38 -12 -47 134 -18 265 -7 341 55 397
36 31 71 99 71 136 0 40 -36 76 -93 94 -61 19 -430 29 -536 14z"/>
<path d="M7055 2604 c-74 -8 -200 -36 -250 -56 -69 -27 -113 -63 -136 -111
-30 -62 -17 -88 71 -132 69 -35 70 -36 70 -75 0 -21 -32 -140 -71 -262 -198
-627 -264 -806 -316 -860 -15 -16 -66 -48 -113 -70 -95 -44 -121 -71 -127
-132 -4 -33 -1 -45 17 -61 21 -19 41 -20 574 -27 303 -3 578 -11 611 -16 99
-17 171 -14 214 7 49 26 186 171 249 265 87 131 120 252 87 325 -21 47 -49 61
-119 61 -66 0 -91 -18 -151 -109 -25 -37 -66 -89 -92 -115 -112 -111 -307
-158 -387 -95 -32 25 -33 58 -6 160 29 111 274 820 311 901 36 78 56 95 152
133 74 30 113 67 122 119 13 68 -34 114 -142 137 -49 10 -496 20 -568 13z"/>
<path d="M9935 2596 c-112 -22 -193 -45 -284 -82 -412 -166 -753 -524 -847
-889 -23 -89 -25 -114 -21 -225 5 -138 25 -212 79 -309 107 -188 348 -301 644
-301 141 0 262 23 443 86 86 30 164 54 173 54 10 0 43 10 75 22 116 43 303
271 303 370 0 107 -104 131 -227 51 -123 -80 -302 -131 -416 -119 -120 12
-225 83 -267 180 -84 191 -22 496 134 663 119 128 247 160 378 95 103 -51 135
-100 179 -280 5 -23 23 -57 39 -75 l28 -32 104 0 c88 0 110 4 151 24 65 32
137 99 169 158 90 164 90 423 0 494 -24 19 -36 21 -121 16 -92 -4 -96 -3 -156
28 -114 61 -184 77 -345 81 -94 2 -169 -1 -215 -10z"/>
<path d="M12510 2595 c-154 -25 -344 -94 -473 -172 -227 -136 -420 -341 -533
-566 -141 -283 -161 -530 -59 -745 68 -144 219 -256 402 -299 108 -25 373 -25
493 0 285 61 540 199 746 405 244 243 368 549 335 828 -12 103 -52 224 -96
294 -71 113 -199 204 -340 243 -93 25 -353 32 -475 12z m21 -387 c75 -42 113
-132 126 -295 12 -165 -36 -437 -99 -556 -40 -74 -122 -150 -187 -172 -48 -16
-52 -15 -94 3 -58 26 -83 68 -102 176 -29 169 -14 421 35 577 23 75 84 174
133 215 30 26 122 74 141 74 4 0 26 -10 47 -22z"/>
<path d="M14741 2595 c-141 -22 -192 -39 -244 -85 -84 -74 -86 -147 -6 -203
22 -15 44 -38 49 -52 20 -53 -20 -199 -157 -565 -111 -298 -204 -518 -241
-575 -20 -30 -47 -50 -107 -80 -118 -59 -157 -133 -101 -190 35 -35 86 -46
236 -52 231 -9 388 23 449 93 57 65 53 108 -15 154 -24 17 -44 37 -44 44 0 53
147 476 176 506 12 12 16 12 23 2 4 -7 16 -106 25 -220 23 -267 51 -468 71
-498 12 -19 24 -24 61 -24 84 0 77 -7 434 450 74 96 160 199 190 229 54 56 54
56 58 29 4 -36 -67 -246 -123 -364 -42 -86 -47 -93 -120 -143 -83 -58 -103
-82 -112 -134 -15 -97 131 -133 501 -124 154 4 227 10 271 22 123 35 184 85
192 157 4 40 2 46 -36 83 -35 33 -41 45 -41 80 0 88 138 554 242 815 99 249
143 316 257 393 84 56 108 149 51 205 -45 46 -108 57 -315 57 -159 0 -188 -3
-252 -23 -97 -30 -146 -77 -392 -372 -108 -129 -220 -260 -250 -292 -54 -59
-85 -72 -95 -40 -3 9 -31 156 -62 327 -31 170 -62 322 -71 338 -25 48 -69 60
-248 63 -103 2 -193 -2 -254 -11z"/>
</g>
</svg>
