<?xml version="1.0" standalone="no"?>
<!DOCTYPE svg PUBLIC "-//W3C//DTD SVG 20010904//EN"
 "http://www.w3.org/TR/2001/REC-SVG-20010904/DTD/svg10.dtd">
<svg version="1.0" xmlns="http://www.w3.org/2000/svg"
 width="8881.000000pt" height="703.000000pt" viewBox="0 0 8881.000000 703.000000"
 preserveAspectRatio="xMidYMid meet">

<g transform="translate(0.000000,703.000000) scale(0.100000,-0.100000)"
fill="#000000" stroke="none">
<path d="M4214 6982 c-101 -74 -137 -77 -289 -22 -268 95 -539 13 -639 -194
-14 -28 -31 -83 -37 -122 -14 -89 4 -194 50 -284 17 -33 31 -63 31 -65 0 -2
-35 -5 -77 -7 l-76 -3 -22 -70 c-69 -222 -191 -336 -735 -680 -233 -147 -300
-205 -373 -321 -23 -38 -28 -41 -72 -42 -65 0 -143 -43 -231 -125 -80 -75
-137 -154 -161 -222 -15 -44 -16 -45 -58 -45 -26 0 -47 -6 -55 -15 -14 -17
-46 -20 -55 -5 -3 6 -10 10 -15 10 -14 0 -534 -472 -644 -584 -236 -242 -420
-495 -557 -768 -102 -204 -164 -423 -184 -654 -7 -81 -7 -84 45 -230 l52 -149
-13 -73 c-18 -106 -6 -241 36 -427 21 -91 40 -204 43 -261 l7 -101 49 -59 c87
-104 357 -367 471 -457 230 -184 558 -384 740 -452 39 -15 104 -46 145 -70
167 -98 307 -143 475 -155 66 -5 155 -18 199 -29 43 -11 153 -27 245 -36 218
-20 451 -50 559 -74 77 -17 107 -18 270 -11 109 5 255 5 365 -1 100 -5 344
-12 542 -15 289 -5 389 -3 507 10 350 37 562 105 750 240 67 48 78 69 78 140
0 29 5 67 11 84 10 29 8 33 -58 99 -38 37 -120 140 -183 228 -173 244 -257
350 -317 405 -30 27 -58 50 -63 50 -19 0 -40 -47 -40 -87 0 -36 -4 -45 -22
-53 -42 -18 -581 -89 -755 -100 -178 -12 -264 -10 -1223 26 l-445 17 -115 38
c-63 21 -169 47 -235 59 -121 22 -267 57 -340 83 -32 11 -44 23 -62 59 -20 43
-31 51 -187 137 -157 88 -173 94 -322 131 -169 42 -314 102 -314 129 0 9 18
76 40 149 168 556 399 992 768 1454 124 154 776 826 961 990 171 152 313 263
616 483 330 239 560 408 750 551 l150 112 42 -11 c38 -10 48 -8 101 17 54 26
63 27 95 16 51 -16 171 -96 240 -160 114 -104 290 -344 422 -574 115 -202 256
-498 395 -831 40 -97 41 -102 34 -175 -4 -41 -8 -172 -9 -290 -2 -231 -10
-282 -60 -382 l-24 -48 26 -70 26 -70 -36 -54 c-51 -77 -138 -168 -220 -229
-175 -131 -283 -147 -384 -54 -84 77 -115 151 -144 344 -23 155 -17 240 32
466 29 134 111 426 144 517 19 50 40 335 31 410 -31 265 -40 287 -161 402 -82
79 -88 82 -128 79 -78 -5 -272 -149 -342 -256 -19 -27 -49 -65 -69 -84 -32
-31 -37 -33 -67 -22 -18 6 -41 19 -51 28 -14 13 -21 13 -33 3 -12 -10 -19 -8
-41 9 -36 28 -80 26 -154 -6 -49 -21 -67 -24 -88 -17 -24 9 -32 4 -82 -46 -41
-41 -82 -68 -163 -108 -59 -28 -127 -70 -151 -92 -25 -23 -86 -62 -138 -88
-51 -26 -172 -104 -268 -173 -209 -151 -240 -170 -305 -194 -32 -12 -64 -35
-88 -61 -21 -24 -72 -67 -115 -98 -101 -71 -144 -112 -234 -221 -243 -294
-322 -420 -366 -581 -18 -66 -19 -77 -6 -164 24 -163 68 -296 147 -444 129
-243 330 -424 502 -455 34 -6 103 -32 160 -60 91 -45 110 -51 205 -61 436 -44
998 -27 1156 35 61 24 108 33 305 59 101 13 108 15 165 59 l60 45 87 -23 c245
-66 494 -57 650 22 64 32 274 174 368 248 299 237 632 584 714 746 27 53 62
229 96 484 28 209 33 622 10 824 l-14 124 -153 306 c-168 335 -290 551 -451
796 -114 172 -276 393 -348 473 -25 28 -45 55 -45 61 0 6 20 26 45 43 25 18
45 36 45 41 0 18 -138 172 -267 298 -154 151 -293 263 -473 382 -144 94 -472
264 -530 273 -28 5 -43 0 -76 -24z m-407 -3484 c-4 -13 -16 -77 -28 -143 -38
-205 -27 -372 36 -526 14 -34 23 -64 21 -66 -11 -11 -348 -36 -494 -36 -194 0
-192 -1 -239 81 -25 42 -25 45 -9 78 9 19 16 46 16 60 0 19 29 56 111 143 113
118 174 168 264 215 28 15 70 47 95 71 39 38 200 142 224 144 4 1 6 -9 3 -21z"/>
<path d="M70509 6936 c-171 -71 -297 -156 -422 -283 -112 -113 -171 -198 -366
-520 -96 -158 -227 -371 -290 -473 -237 -381 -393 -694 -771 -1545 -312 -701
-728 -1685 -788 -1861 -53 -156 -63 -222 -69 -454 -7 -295 13 -474 87 -766 47
-186 93 -311 175 -479 62 -128 166 -285 202 -303 36 -19 244 -33 332 -22 185
21 254 91 431 432 86 166 91 181 101 264 24 217 59 287 203 421 44 40 82 85
91 107 15 35 15 42 1 84 -23 65 -20 96 17 192 43 113 104 203 225 330 l99 105
6 110 c7 142 56 317 158 575 48 120 177 379 242 483 l55 89 73 -143 c115 -223
213 -363 353 -505 170 -171 316 -264 521 -333 172 -57 238 -66 480 -65 195 1
236 4 356 27 512 100 1105 370 1784 815 105 68 272 181 372 251 149 103 184
132 194 159 6 17 18 36 28 41 19 10 84 16 144 13 l37 -2 0 -83 c0 -76 -3 -88
-29 -123 -55 -77 -214 -728 -280 -1154 -54 -346 -76 -759 -52 -991 31 -297
114 -528 251 -700 69 -86 164 -169 193 -169 89 1 222 51 371 139 78 46 220
111 299 137 25 8 40 35 132 241 191 428 397 973 460 1219 69 268 96 483 100
804 l3 235 47 115 c107 261 130 443 115 930 l-4 155 36 85 c85 196 111 376 84
568 -24 169 -32 154 74 146 64 -5 90 -4 90 4 0 7 -18 58 -39 114 -64 170 -81
234 -81 312 l0 72 -53 46 c-67 58 -137 159 -181 263 -19 44 -49 97 -67 119
-30 36 -156 126 -177 126 -18 0 -103 83 -122 119 -10 20 -22 54 -26 75 -7 38
-8 39 -149 107 -294 141 -454 167 -612 99 -47 -20 -50 -23 -91 -118 -50 -115
-142 -277 -232 -405 -106 -152 -415 -452 -770 -747 -178 -148 -412 -354 -572
-502 -75 -71 -143 -128 -150 -128 -33 0 -180 -76 -293 -150 -188 -122 -342
-208 -420 -233 -101 -32 -273 -31 -365 1 -83 29 -100 39 -138 82 -40 47 -55
145 -42 275 24 226 24 270 2 316 -33 73 -35 114 -5 204 36 110 38 277 4 375
-34 99 -148 301 -308 546 l-145 222 -49 6 c-28 4 -99 22 -158 41 -59 18 -125
37 -147 41 -58 10 -112 41 -128 72 -7 15 -21 58 -29 96 -18 78 -39 106 -130
167 -58 41 -193 109 -212 109 -5 -1 -35 -11 -66 -24z"/>
<path d="M15424 6863 c-73 -102 -165 -267 -279 -498 -172 -351 -280 -611 -575
-1375 -442 -1149 -738 -1755 -1022 -2096 -94 -113 -137 -151 -413 -363 -150
-116 -223 -167 -231 -160 -26 21 -69 142 -97 273 -29 134 -30 153 -31 371 0
264 7 317 100 745 235 1087 297 1393 298 1480 1 48 -5 64 -43 126 -24 39 -102
149 -173 245 -71 96 -152 207 -180 247 -27 40 -57 76 -66 79 -9 3 -54 23 -99
44 -87 41 -181 111 -304 227 -42 40 -81 72 -87 72 -14 0 -147 -142 -233 -250
-136 -172 -351 -477 -517 -737 -99 -154 -562 -920 -797 -1318 -386 -654 -544
-865 -942 -1255 -297 -292 -554 -496 -738 -586 -99 -48 -115 -52 -115 -29 0
29 60 420 91 590 108 598 167 813 472 1700 155 452 319 955 377 1160 31 106
90 349 90 370 0 6 -24 29 -52 50 -186 140 -350 307 -498 505 -59 78 -77 95
-131 122 -35 18 -88 56 -119 86 l-55 54 -65 -21 c-118 -38 -218 -113 -337
-254 -159 -190 -330 -484 -461 -792 -75 -177 -240 -616 -302 -805 -147 -442
-379 -1469 -576 -2539 -53 -291 -56 -251 33 -474 49 -126 147 -329 354 -737
74 -145 74 -145 194 -259 154 -145 247 -206 534 -348 l233 -116 97 7 c376 27
697 122 1058 311 395 208 798 523 1413 1105 186 176 369 344 378 347 7 2 275
-489 380 -696 119 -234 353 -625 467 -779 108 -147 301 -310 462 -391 l62 -31
48 30 c26 17 70 37 97 45 59 18 203 20 292 4 l63 -11 98 65 c360 238 634 502
940 907 193 256 343 494 533 845 164 302 304 606 565 1221 543 1280 616 1446
774 1762 l101 202 -11 78 c-90 676 -322 1046 -901 1440 l-107 72 -47 -67z"/>
<path d="M27836 6853 c-30 -62 -55 -142 -81 -253 -13 -58 -39 -148 -57 -200
l-34 -95 18 -65 c11 -36 41 -133 69 -216 51 -156 79 -277 79 -345 l0 -39 -90
0 c-104 0 -117 -10 -102 -78 6 -25 5 -55 -3 -88 -28 -108 -27 -126 4 -250 154
-618 208 -1305 140 -1806 -10 -75 -12 -79 -62 -130 l-53 -53 -13 -105 c-26
-217 -83 -434 -216 -830 -41 -122 -55 -179 -55 -221 0 -67 -15 -113 -64 -193
-20 -33 -45 -83 -55 -111 l-20 -52 29 -289 c33 -337 42 -394 77 -529 82 -315
237 -515 473 -608 148 -58 126 -60 327 31 280 126 574 250 986 416 554 223
789 327 1151 508 403 202 703 384 1022 621 373 276 621 541 850 909 l61 96 6
104 c4 57 18 143 31 193 22 82 23 99 15 185 -21 215 -79 473 -143 639 -129
334 -374 692 -667 976 -240 232 -418 373 -809 640 -310 212 -465 320 -592 412
-72 52 -103 67 -179 88 -231 65 -421 138 -1074 410 -247 103 -499 207 -560
230 -116 45 -372 135 -384 135 -4 0 -15 -17 -25 -37z m1037 -1652 c69 -46 104
-62 272 -116 88 -29 213 -77 277 -109 65 -31 131 -56 146 -56 53 0 179 -38
258 -78 44 -22 151 -81 239 -131 151 -86 283 -141 340 -141 29 0 41 -12 85
-91 47 -84 134 -175 314 -331 216 -187 292 -263 347 -347 l49 -73 -47 -91
c-147 -285 -423 -531 -812 -726 -106 -53 -249 -117 -441 -195 -101 -41 -140
-64 -203 -115 -42 -35 -86 -78 -96 -95 -18 -29 -26 -32 -120 -48 -100 -17
-184 -47 -411 -147 -123 -54 -213 -81 -268 -81 -27 0 -32 3 -28 18 21 65 112
690 138 942 17 168 17 803 0 970 -28 266 -82 578 -153 869 -21 90 -39 165 -39
168 0 8 65 32 88 33 13 0 42 -13 65 -29z"/>
<path d="M24680 5798 c-14 -6 -115 -14 -225 -18 -110 -4 -220 -13 -245 -20
-26 -7 -135 -13 -270 -15 -257 -4 -312 -11 -674 -89 -138 -30 -314 -67 -391
-81 -174 -33 -671 -157 -785 -197 -390 -136 -653 -325 -774 -559 l-49 -94 35
-80 c155 -352 402 -620 704 -766 74 -36 91 -40 127 -34 23 3 88 10 144 14 86
6 108 12 142 34 28 19 41 34 41 50 0 44 41 145 76 185 36 43 105 76 145 70 31
-4 42 -60 36 -178 -5 -87 -14 -120 -131 -448 -28 -77 -38 -125 -42 -190 -4
-63 -17 -121 -44 -207 -47 -146 -71 -238 -105 -415 -34 -179 -46 -225 -110
-420 -29 -91 -61 -192 -70 -225 -11 -38 -29 -73 -50 -95 -49 -52 -70 -101
-114 -269 -43 -160 -63 -209 -105 -254 l-25 -27 23 -63 c39 -104 41 -125 14
-136 -60 -23 -74 -59 -98 -254 -11 -85 -10 -89 18 -155 16 -37 48 -96 71 -132
37 -57 42 -71 39 -113 -2 -35 1 -47 11 -47 40 0 111 -114 111 -177 0 -14 15
-26 57 -43 41 -17 83 -48 149 -112 51 -48 98 -88 103 -88 6 0 26 7 45 16 32
16 41 16 123 1 l88 -17 40 28 c23 16 67 67 103 119 l62 92 108 -68 c193 -123
353 -191 446 -191 49 1 72 16 87 59 9 26 14 30 26 20 8 -7 20 -27 28 -46 11
-25 20 -33 39 -33 14 0 120 20 236 44 224 48 303 76 360 130 26 25 48 36 85
41 79 11 300 62 415 96 292 86 779 310 1137 523 147 87 245 184 437 435 l148
194 -1 53 c0 56 -20 107 -47 122 -15 8 -15 12 0 40 33 64 15 141 -85 380 -39
92 -74 177 -79 189 -5 12 -29 33 -54 48 -32 19 -54 42 -77 83 -47 86 -219 249
-424 403 -212 160 -266 206 -330 277 -46 51 -47 54 -34 80 8 14 131 146 274
292 147 150 293 309 336 366 95 126 180 274 220 384 35 98 61 255 57 349 -3
65 -4 66 -40 86 -36 19 -38 23 -38 67 0 25 -8 73 -18 106 -35 111 -112 199
-328 374 -73 59 -142 121 -154 137 -12 17 -29 31 -38 31 -34 1 -99 39 -182
107 -139 114 -188 143 -240 143 -27 0 -58 -8 -78 -20 -41 -25 -44 -25 -91 4
-36 23 -101 47 -162 60 -14 3 -42 17 -63 31 -41 28 -41 28 -76 13z m88 -1150
c-219 -257 -515 -503 -773 -645 -82 -46 -245 -123 -258 -123 -3 0 -19 23 -37
51 -51 83 -114 142 -253 238 -73 50 -160 113 -195 140 l-63 49 34 21 c124 76
381 172 619 230 290 71 505 98 791 100 l189 1 -54 -62z m152 -2066 c105 -25
207 -62 328 -118 l92 -43 0 -43 c-1 -89 -46 -145 -215 -263 -100 -70 -143
-112 -169 -163 -22 -42 -26 -45 -157 -97 -74 -29 -250 -105 -391 -168 -452
-204 -734 -309 -968 -361 -116 -26 -230 -43 -230 -34 0 14 343 981 387 1089
14 37 15 37 111 54 53 10 182 42 285 71 103 29 236 62 295 73 59 11 118 22
132 25 14 2 113 3 220 1 150 -3 215 -8 280 -23z"/>
<path d="M65260 5774 c-168 -37 -326 -110 -442 -206 -222 -183 -374 -363 -760
-898 -106 -146 -205 -258 -311 -350 l-91 -80 -34 35 c-42 41 -117 71 -218 87
-103 16 -111 11 -155 -103 -58 -148 -93 -284 -189 -733 -112 -522 -149 -671
-211 -857 -44 -131 -48 -154 -43 -206 13 -126 -28 -312 -68 -305 -15 2 -15 -1
-1 -45 24 -79 12 -214 -32 -363 -62 -209 -74 -258 -110 -457 l-34 -192 42 -83
c26 -51 51 -87 65 -93 20 -9 22 -15 16 -51 -4 -28 2 -70 21 -139 20 -74 26
-113 22 -152 l-6 -53 38 0 c54 0 69 -16 95 -100 l24 -75 50 -6 c36 -5 70 -20
127 -58 111 -73 160 -71 254 13 52 46 114 66 159 52 22 -7 56 32 135 157 87
136 178 364 252 635 16 56 32 102 36 102 4 0 79 -64 166 -141 195 -174 315
-265 467 -354 396 -230 1378 -598 1856 -695 220 -45 433 -45 583 -1 34 10 83
24 108 31 66 17 107 55 188 174 39 58 82 113 96 124 14 11 25 23 25 26 0 3
-20 6 -45 6 -52 0 -56 10 -25 62 48 81 48 293 1 431 -42 121 -132 268 -184
301 -13 8 -80 19 -162 26 -214 18 -345 43 -780 145 -667 157 -716 176 -1132
439 -151 95 -203 133 -205 149 -2 14 -11 23 -25 25 -14 2 -23 10 -23 21 0 26
258 121 725 266 308 96 635 240 820 362 50 33 132 95 183 138 244 204 347 398
382 720 10 89 10 103 -10 169 -16 52 -21 85 -16 122 5 46 1 61 -35 140 -23 49
-79 190 -124 314 -136 370 -187 473 -292 597 -48 57 -53 67 -53 112 l0 49
-106 76 c-59 42 -110 76 -115 76 -4 0 -35 35 -67 78 -92 120 -201 217 -377
333 -88 58 -196 131 -239 162 -88 63 -101 66 -216 41z m-35 -1537 c156 -78
306 -238 369 -393 31 -76 63 -222 50 -233 -9 -8 -556 -232 -709 -291 -143 -54
-362 -111 -518 -133 l-38 -6 7 37 c13 71 56 188 95 262 71 132 149 229 355
441 111 114 225 239 254 278 58 78 57 78 135 38z"/>
<path d="M41590 5763 c-116 -6 -361 -35 -500 -58 -463 -78 -1116 -274 -1765
-530 -115 -45 -303 -113 -418 -150 -343 -111 -552 -229 -737 -414 -89 -89
-113 -120 -152 -197 l-46 -91 5 -89 c4 -77 1 -103 -25 -194 l-30 -104 24 -42
c27 -47 30 -92 13 -210 -14 -91 -16 -86 105 -246 80 -108 81 -108 123 -108 41
0 45 -2 77 -53 33 -51 39 -55 133 -92 206 -79 507 -136 873 -165 92 -8 187
-23 260 -41 132 -33 164 -35 220 -13 l40 16 102 -45 c57 -25 177 -71 268 -102
91 -31 215 -80 275 -110 61 -29 129 -58 153 -65 29 -7 42 -16 42 -29 0 -9 16
-31 35 -48 41 -36 42 -52 14 -129 -19 -49 -40 -75 -146 -178 -89 -87 -131
-136 -148 -173 -24 -49 -29 -54 -117 -96 -51 -24 -194 -99 -318 -167 -427
-234 -667 -332 -980 -401 -91 -20 -136 -23 -338 -25 -231 -1 -232 -2 -271 -27
-47 -31 -80 -96 -88 -173 -3 -31 0 -128 7 -216 12 -148 11 -164 -6 -220 l-18
-61 22 -16 c12 -9 31 -23 42 -31 l21 -15 -25 -47 c-22 -40 -23 -48 -11 -58 8
-7 15 -26 15 -42 0 -21 6 -31 18 -35 11 -3 28 -27 41 -58 13 -31 50 -85 87
-127 l65 -72 172 -5 c371 -11 429 -5 520 55 36 23 37 24 37 4 0 -36 77 -26
256 34 350 118 715 278 945 416 555 334 942 766 1084 1211 35 110 41 225 25
471 -11 172 -15 198 -38 243 -32 65 -71 122 -151 220 -35 44 -77 109 -93 145
-16 36 -33 72 -37 80 -8 15 -30 24 -82 34 -32 7 -46 38 -59 126 -39 275 -251
510 -461 510 -34 0 -39 4 -67 53 -26 45 -41 59 -99 89 -37 20 -133 55 -213 79
-167 50 -223 84 -228 137 -2 18 -10 36 -18 39 -8 3 -14 16 -14 29 0 27 -4 26
160 49 142 20 210 38 275 74 42 23 66 29 145 34 74 4 132 16 264 56 277 83
392 88 487 19 l42 -30 226 16 c535 39 538 39 683 27 77 -6 186 -20 243 -32
l104 -20 49 25 c63 32 215 134 267 179 l40 35 0 88 c0 109 -18 152 -104 246
-48 52 -62 76 -77 128 -14 49 -44 103 -123 220 -57 85 -119 177 -137 204 -18
27 -41 71 -51 98 -19 53 -17 52 -158 87 -127 32 -309 60 -455 71 -129 10 -178
10 -300 3z"/>
<path d="M56172 5733 c-25 -49 -67 -181 -132 -412 -73 -260 -119 -369 -186
-442 -22 -23 -30 -61 -79 -375 -98 -627 -124 -777 -164 -940 -96 -393 -228
-714 -403 -980 -91 -140 -273 -324 -406 -413 -52 -35 -95 -61 -97 -59 -2 2
-13 53 -24 113 -39 220 -44 332 -37 875 3 283 2 543 -2 578 -7 54 -6 62 8 62
9 0 31 16 49 35 17 19 37 35 45 35 10 0 11 10 3 51 -12 59 -3 94 51 214 29 64
35 92 35 140 -1 33 -6 72 -12 88 -10 26 -9 27 13 21 13 -3 27 -1 30 5 4 6 16
11 28 11 15 0 18 4 12 18 -4 9 -9 49 -10 88 -1 49 -8 80 -20 99 -14 22 -15 28
-4 35 8 5 18 6 22 3 15 -9 38 19 38 46 0 48 -40 175 -85 266 -115 236 -334
445 -648 618 -119 65 -393 192 -432 199 -16 2 -34 -30 -118 -212 -290 -633
-551 -1182 -997 -2095 -303 -622 -541 -1116 -720 -1495 l-87 -184 24 -54 c34
-73 49 -165 37 -233 -9 -54 -8 -56 74 -249 172 -405 234 -526 350 -678 75 -97
140 -152 239 -199 67 -32 74 -34 114 -23 24 7 61 21 81 31 22 11 58 19 88 19
54 0 61 9 35 47 -24 35 -9 53 42 53 73 0 121 19 159 64 43 50 66 112 94 251
24 118 38 155 77 196 22 24 24 30 14 65 -25 90 -3 160 97 312 34 51 64 108 68
126 5 27 12 35 34 39 38 8 57 38 129 212 35 83 72 162 83 178 22 31 77 63 87
50 4 -4 25 -51 46 -103 93 -233 256 -514 411 -710 98 -123 391 -413 519 -514
92 -73 123 -91 187 -111 305 -97 503 -41 778 220 79 75 156 133 207 154 29 12
30 15 25 57 -4 36 0 51 17 74 11 16 21 41 21 55 0 30 0 30 45 8 31 -15 37 -15
49 -2 8 7 60 101 116 208 108 208 131 242 221 336 58 59 59 61 100 205 23 79
83 266 134 415 l93 270 6 185 c6 208 28 373 87 660 22 107 53 258 69 335 16
77 38 205 50 285 l22 144 54 53 c69 68 121 176 169 353 21 74 48 156 61 181
22 45 22 48 8 108 -8 35 -29 95 -48 135 -32 69 -207 346 -240 378 -8 8 -34 18
-57 22 -89 14 -180 73 -328 209 -142 131 -259 203 -364 222 -34 7 -37 5 -55
-32z"/>
<path d="M44212 5725 c-118 -26 -242 -105 -421 -270 -52 -47 -102 -90 -113
-96 -14 -8 -18 -22 -18 -65 0 -93 -28 -188 -92 -312 -34 -64 -70 -135 -81
-157 -16 -32 -20 -62 -21 -150 -2 -128 -14 -161 -68 -190 -66 -35 -69 -58 -27
-218 10 -39 10 -63 0 -125 -24 -141 -98 -415 -180 -663 -44 -135 -96 -311
-116 -390 -72 -291 -79 -359 -105 -936 -10 -227 -26 -350 -55 -434 -14 -40
-13 -49 40 -263 125 -511 269 -935 381 -1126 18 -31 41 -63 50 -71 14 -11 62
-14 233 -14 208 0 219 1 297 28 206 69 337 220 365 423 12 86 9 134 -30 379
-86 551 -39 1162 145 1886 75 297 211 718 381 1179 47 128 61 176 51 179 -7 2
-27 18 -44 36 -61 60 -94 237 -94 507 l0 126 -50 36 c-92 66 -125 140 -184
408 -35 159 -58 224 -96 278 -25 34 -47 37 -148 15z"/>
<path d="M49280 5654 c-152 -124 -308 -224 -730 -469 -674 -392 -913 -557
-1123 -773 -59 -61 -89 -85 -125 -96 -65 -22 -126 -75 -213 -184 -50 -64 -122
-135 -224 -221 -171 -146 -365 -342 -476 -481 -204 -257 -419 -602 -599 -960
-60 -120 -63 -128 -61 -195 1 -39 -6 -92 -14 -119 -8 -27 -15 -69 -15 -93 0
-36 4 -45 24 -54 21 -10 24 -19 30 -108 66 -916 506 -1486 1240 -1606 179 -29
279 -30 401 -2 92 21 146 26 330 31 281 8 342 17 375 56 21 25 32 30 70 30 25
0 131 14 235 30 105 17 253 33 330 37 120 5 150 10 210 33 227 88 463 160 810
246 709 177 1071 297 1407 468 340 173 527 332 700 595 64 98 68 108 68 161 0
31 -7 79 -15 106 -8 27 -15 83 -15 124 l-1 75 -61 35 c-78 44 -185 139 -368
325 -208 212 -167 185 -705 467 -361 190 -578 313 -762 435 l-52 34 -301 -201
c-165 -110 -304 -208 -307 -218 -3 -9 -20 -51 -38 -92 -42 -96 -52 -140 -34
-151 23 -14 29 -11 45 26 17 42 45 46 78 10 34 -37 40 -79 17 -130 -10 -23
-23 -45 -28 -48 -6 -4 -7 -27 -1 -63 25 -159 104 -281 239 -371 l41 -27 -30
-26 c-16 -14 -42 -35 -57 -48 -25 -21 -26 -24 -12 -45 9 -14 50 -35 118 -60
57 -21 107 -42 112 -46 7 -7 -216 -70 -683 -191 -367 -96 -634 -149 -954 -190
-158 -20 -196 -33 -196 -65 0 -7 -8 -23 -18 -35 l-17 -22 -109 17 c-93 13
-169 15 -505 10 l-396 -7 -30 49 c-16 26 -35 57 -42 69 -10 18 -3 34 61 136
364 576 1100 1319 1766 1785 219 153 463 289 1075 597 215 108 442 226 505
264 l115 67 3 44 c2 24 10 54 18 67 9 12 14 37 12 56 -3 29 -8 34 -48 48 -46
16 -69 50 -33 50 44 0 56 58 28 127 -21 51 -19 88 7 105 l21 14 -29 54 c-67
123 -181 211 -443 344 -168 85 -202 111 -246 184 -34 58 -57 68 -116 52 -32
-9 -51 -8 -94 4 -29 9 -55 16 -57 15 -1 0 -50 -38 -108 -85z"/>
<path d="M86145 5664 c-138 -115 -333 -241 -755 -487 -680 -395 -932 -571
-1137 -791 -34 -36 -69 -66 -77 -66 -9 0 -38 -11 -64 -24 -49 -25 -107 -83
-205 -204 -32 -40 -111 -115 -175 -168 -150 -124 -382 -358 -495 -499 -177
-222 -407 -588 -571 -909 -78 -154 -81 -163 -87 -245 -3 -47 -12 -119 -20
-160 l-13 -73 28 -23 c26 -21 29 -29 32 -101 16 -307 100 -641 221 -876 234
-458 619 -711 1159 -760 127 -11 136 -11 265 15 109 21 173 27 339 32 263 6
327 16 360 54 21 23 34 28 75 30 28 1 133 15 235 32 106 17 245 32 325 36 133
5 146 8 255 48 225 83 464 155 799 239 729 184 1073 301 1421 483 310 162 517
346 681 608 40 64 44 74 42 131 -1 34 -9 87 -18 119 -11 37 -16 79 -13 116 l4
59 -70 42 c-52 30 -130 99 -286 252 -118 117 -235 228 -260 248 -42 34 -118
76 -690 380 -246 131 -510 285 -593 345 l-49 35 -304 -203 c-274 -182 -304
-205 -315 -238 -6 -20 -22 -57 -35 -83 -32 -63 -47 -130 -31 -140 20 -13 27
-9 44 27 18 38 37 43 69 20 49 -34 55 -116 12 -170 -20 -26 -21 -31 -9 -99 23
-135 94 -250 206 -333 l66 -48 -51 -45 c-51 -45 -61 -69 -37 -87 6 -6 53 -25
102 -43 156 -56 165 -47 -123 -124 -718 -193 -948 -244 -1292 -291 -283 -38
-273 -35 -290 -70 -38 -74 -24 -69 -150 -51 -98 14 -168 16 -505 10 l-391 -7
-43 63 c-23 34 -41 70 -38 79 8 33 134 224 238 364 468 624 1230 1327 1828
1687 144 86 481 264 896 473 193 97 400 206 460 242 111 66 111 66 107 100 -3
22 2 45 12 60 19 29 21 86 4 103 -7 7 -22 12 -33 12 -20 0 -55 28 -55 43 0 4
8 7 18 7 43 0 56 64 27 133 -21 52 -19 88 5 94 26 7 25 13 -5 74 -58 114 -176
207 -424 333 -180 92 -233 132 -271 207 -23 44 -52 54 -113 39 -34 -9 -52 -8
-87 4 -25 9 -49 16 -55 15 -5 0 -50 -34 -100 -75z"/>
<path d="M79685 5587 c-307 -444 -487 -633 -717 -757 -77 -41 -79 -42 -145
-34 -107 13 -115 12 -271 -54 l-83 -35 -78 -117 c-48 -71 -143 -244 -240 -437
-88 -175 -193 -372 -233 -438 -68 -114 -72 -123 -74 -185 -2 -71 -21 -114
-349 -785 -353 -721 -492 -1022 -626 -1355 -71 -175 -79 -202 -79 -261 l0 -65
-50 -41 -50 -40 64 -59 63 -59 22 -100 c13 -55 27 -116 32 -135 14 -57 75
-145 121 -175 24 -16 87 -66 141 -113 l97 -84 83 0 c45 1 138 12 207 25 l125
23 15 47 c15 46 19 49 125 108 61 33 128 78 150 100 49 47 75 116 75 199 0 77
24 173 94 370 30 85 64 189 76 230 17 57 31 84 59 111 30 29 40 52 59 125 33
125 40 137 89 149 24 6 47 15 52 20 5 6 21 46 35 90 42 129 68 195 77 195 5 0
9 -9 9 -20 0 -11 8 -37 17 -58 9 -21 19 -77 23 -128 5 -84 9 -96 42 -147 21
-30 57 -76 81 -101 30 -30 48 -60 56 -90 7 -27 18 -47 28 -50 110 -33 449 -40
628 -12 112 18 211 40 505 116 156 40 171 42 270 37 58 -3 113 -8 123 -12 26
-11 31 -50 19 -153 -24 -203 -102 -266 -442 -358 -74 -20 -136 -37 -138 -39
-5 -5 148 -175 260 -291 91 -94 98 -104 98 -142 0 -22 -9 -69 -20 -103 -10
-35 -16 -66 -12 -70 4 -3 30 -15 59 -26 28 -12 98 -51 154 -87 136 -87 185
-102 291 -86 113 16 197 44 312 103 273 140 507 394 622 678 14 35 32 72 40
83 33 48 7 483 -41 676 -7 30 -16 83 -20 117 l-7 62 54 27 c177 89 376 256
490 412 39 53 138 221 138 234 0 3 -32 17 -70 32 -51 21 -95 49 -157 102 -87
74 -148 104 -213 104 -38 0 -104 60 -118 107 -22 74 -23 74 -142 58 -58 -8
-121 -19 -140 -25 -19 -5 -56 -10 -82 -10 -46 0 -48 2 -63 38 -52 123 -114
375 -206 837 -27 138 -65 309 -83 380 -21 80 -36 169 -40 230 -8 117 -37 327
-70 510 -14 72 -27 148 -31 170 -4 22 -18 74 -31 117 -21 65 -31 83 -67 111
-79 65 -183 105 -412 161 -211 51 -335 91 -385 125 -14 10 -41 27 -61 39 l-36
22 -98 -143z m25 -1773 c0 -3 29 -114 64 -247 63 -238 206 -825 206 -844 0
-15 -365 -71 -605 -92 -399 -35 -525 -45 -530 -39 -7 6 48 99 126 214 26 39
76 118 110 175 134 225 307 465 465 647 55 63 110 131 124 153 22 34 40 50 40
33z"/>
<path d="M37108 5688 c-3 -23 -15 -27 -55 -14 -22 7 -55 -16 -65 -44 -6 -20
-63 -2 -113 35 l-44 34 -102 -19 c-153 -29 -393 -65 -699 -105 -656 -85 -1010
-155 -1425 -283 -162 -50 -213 -62 -519 -128 -271 -57 -452 -123 -605 -221
-65 -42 -159 -129 -196 -182 l-26 -39 20 -78 c11 -44 32 -158 46 -254 34 -227
50 -305 86 -414 41 -124 91 -215 159 -289 l58 -63 -43 -106 c-24 -59 -104
-232 -178 -385 -140 -289 -193 -406 -249 -558 -30 -81 -36 -90 -61 -93 -18 -2
-32 -13 -42 -32 -8 -16 -23 -33 -32 -39 -13 -7 -17 -20 -15 -49 5 -60 -14
-115 -65 -189 -62 -91 -91 -156 -108 -248 -30 -153 -17 -310 59 -740 24 -137
47 -277 51 -310 7 -55 10 -62 49 -90 40 -30 56 -55 92 -143 22 -54 145 -172
235 -225 344 -202 1030 -241 1763 -101 l138 27 82 -21 c81 -20 83 -20 186 -2
577 100 712 126 825 155 238 61 394 130 540 240 129 97 241 238 334 420 l41
80 -31 3 c-39 4 -61 40 -84 135 -24 102 -48 137 -91 137 -73 0 -130 47 -274
220 -71 86 -134 134 -165 125 -125 -37 -272 -70 -424 -95 -173 -30 -306 -67
-391 -110 -29 -15 -72 -19 -265 -23 -173 -4 -288 -13 -466 -35 -412 -53 -602
-60 -859 -31 -47 5 -97 12 -112 15 l-27 5 23 62 c74 197 199 438 322 622 113
168 103 159 155 145 24 -7 112 -16 194 -20 90 -5 167 -14 193 -23 39 -14 47
-14 80 0 29 12 60 14 145 10 77 -4 124 -2 163 9 42 11 60 11 76 3 15 -8 76
-10 192 -6 141 4 188 9 269 30 134 35 291 101 423 176 160 91 486 322 503 357
23 46 19 158 -8 237 l-23 67 -47 0 c-83 0 -139 38 -316 209 -169 164 -168 163
-149 235 l7 29 -174 -7 c-96 -4 -253 -13 -349 -21 -421 -33 -490 -37 -684 -34
-145 3 -209 8 -217 16 -7 7 -16 58 -20 120 -4 60 -12 121 -18 136 -6 16 -11
30 -11 32 0 2 51 20 113 39 62 20 125 47 142 60 27 23 39 25 125 26 76 0 110
5 174 27 74 25 83 26 147 15 l68 -12 63 36 c132 76 320 148 463 178 39 8 214
40 390 71 343 60 461 87 601 136 244 85 390 194 538 402 l48 67 -12 48 c-8 36
-8 66 0 117 6 38 8 86 5 106 -6 35 -12 40 -78 72 -170 80 -337 214 -414 330
-28 42 -32 45 -35 25z"/>
<path d="M20519 5696 c-9 -9 -455 -79 -744 -116 -706 -92 -1018 -154 -1480
-293 -99 -30 -281 -76 -405 -102 -353 -74 -533 -136 -695 -239 -68 -44 -162
-131 -200 -185 l-26 -39 20 -78 c11 -44 32 -158 46 -254 34 -227 50 -305 86
-414 41 -124 91 -215 159 -289 l58 -63 -43 -106 c-24 -59 -104 -232 -178 -385
-143 -294 -206 -436 -253 -570 -27 -76 -31 -83 -56 -83 -20 0 -32 -8 -43 -30
-8 -16 -23 -33 -32 -39 -13 -7 -17 -20 -15 -49 5 -60 -14 -115 -65 -189 -100
-146 -130 -263 -120 -468 7 -141 19 -227 72 -520 19 -104 39 -230 46 -280 8
-55 18 -93 26 -98 49 -29 84 -74 104 -130 19 -52 36 -75 104 -142 159 -156
354 -234 701 -280 339 -45 745 -24 1210 60 l142 26 82 -20 83 -20 216 39 c119
21 297 53 396 70 672 116 951 284 1179 711 25 46 46 87 46 92 0 4 -13 7 -30 7
-39 0 -56 27 -81 126 -24 97 -47 138 -80 142 -69 7 -91 16 -133 54 -26 22 -85
87 -132 144 -51 62 -103 114 -129 130 l-44 25 -78 -24 c-82 -26 -218 -55 -393
-83 -128 -20 -248 -54 -332 -93 -63 -29 -64 -29 -293 -34 -175 -4 -286 -12
-465 -35 -449 -58 -694 -62 -967 -17 l-32 6 49 119 c91 221 215 449 339 624
31 44 59 84 62 88 3 5 28 4 55 -2 27 -7 117 -15 199 -20 84 -5 167 -14 190
-23 34 -12 45 -12 73 0 24 10 70 13 165 11 93 -2 141 1 164 10 23 10 36 11 51
3 30 -16 285 -14 383 4 163 28 386 117 562 224 45 27 163 106 262 176 166 116
181 129 193 168 17 55 10 167 -16 232 l-20 50 -61 6 c-85 8 -139 47 -321 230
-142 142 -163 170 -140 184 6 3 10 17 10 31 0 23 -3 24 -65 24 -91 0 -364 -17
-648 -40 -232 -20 -568 -26 -660 -14 -54 8 -54 8 -67 154 -5 58 -12 115 -15
127 -6 20 1 24 92 52 54 17 120 44 146 61 44 28 55 30 137 30 68 0 107 6 166
25 86 28 106 30 168 14 41 -10 46 -8 147 45 123 65 252 115 369 145 47 11 249
50 450 85 472 84 665 140 848 248 110 65 356 338 334 372 -4 6 -7 73 -7 150
l0 138 -100 52 c-178 92 -293 182 -375 295 -40 55 -45 59 -52 40 -8 -21 -18
-22 -60 -4 -16 7 -51 -19 -60 -45 -6 -20 -64 -2 -113 36 -43 33 -57 39 -66 30z"/>
<path d="M61360 5664 c-102 -18 -306 -49 -455 -69 -839 -111 -1122 -166 -1579
-305 -93 -28 -284 -76 -425 -106 -366 -79 -550 -144 -711 -254 -64 -43 -200
-184 -200 -207 0 -8 9 -49 19 -91 11 -43 29 -142 41 -222 38 -269 63 -378 114
-506 37 -90 95 -181 150 -233 20 -19 36 -41 36 -49 0 -27 -92 -234 -233 -527
-126 -261 -194 -416 -249 -570 -11 -32 -20 -41 -43 -45 -20 -3 -34 -15 -43
-33 -7 -15 -22 -31 -32 -37 -15 -8 -18 -17 -13 -40 9 -48 -15 -120 -67 -200
-91 -139 -120 -236 -120 -405 0 -131 11 -221 70 -570 27 -159 52 -311 55 -338
5 -38 11 -50 33 -61 42 -22 68 -55 94 -123 29 -71 52 -101 130 -168 120 -103
258 -168 448 -211 399 -89 892 -82 1434 22 l138 27 84 -22 84 -21 187 35 c104
18 282 50 397 70 445 77 681 160 877 307 135 101 234 225 334 413 l47 90 -31
3 c-41 4 -64 41 -85 135 -22 98 -48 137 -91 137 -71 0 -119 37 -243 185 -82
98 -113 128 -155 151 -25 13 -34 12 -110 -10 -99 -31 -179 -48 -352 -76 -159
-25 -255 -51 -360 -95 l-80 -33 -225 -5 c-169 -4 -284 -13 -461 -35 -419 -54
-574 -60 -859 -30 -155 15 -147 4 -91 138 52 126 139 303 203 414 50 87 198
306 207 306 3 0 22 -5 41 -10 19 -6 107 -15 195 -19 107 -6 172 -13 198 -24
34 -15 40 -15 75 0 29 12 60 14 145 10 77 -4 124 -2 163 9 39 10 61 11 74 4
34 -18 292 -12 400 10 194 39 422 138 610 262 191 127 362 252 378 277 26 39
22 179 -7 254 l-22 57 -48 0 c-83 0 -139 38 -310 207 -84 84 -157 153 -162
153 -12 0 -11 47 1 55 6 3 10 18 10 32 l0 26 -172 -7 c-170 -7 -220 -10 -601
-41 -192 -15 -517 -20 -600 -9 -40 6 -47 11 -56 37 -6 16 -11 60 -11 96 0 62
-9 115 -24 152 -6 13 14 23 106 52 62 20 127 48 143 61 27 23 39 25 128 26 77
0 112 5 169 25 79 27 113 30 172 14 37 -10 44 -8 145 44 229 119 300 139 771
223 400 70 486 90 635 141 259 89 382 178 544 395 l43 58 3 160 4 161 -92 45
c-178 89 -316 199 -393 310 -36 52 -39 54 -48 34 -9 -21 -18 -22 -58 -5 -12 5
-26 -2 -46 -25 -35 -38 -61 -35 -128 16 -24 19 -48 33 -52 33 -4 -1 -90 -16
-192 -35z"/>
</g>
</svg>
